<svg width="97" height="45" viewBox="0 0 97 45" fill="none" xmlns="http://www.w3.org/2000/svg">
<path d="M13.701 45H0.977966L20.684 0.072998H33.407L13.701 45Z" fill="#FFE400"/>
<path d="M48.851 37.278C48.851 35.7508 48.3981 34.2578 47.5496 32.9879C46.7011 31.718 45.4951 30.7283 44.084 30.1438C42.673 29.5594 41.1204 29.4065 39.6225 29.7044C38.1246 30.0024 36.7486 30.7378 35.6687 31.8178C34.5888 32.8977 33.8533 34.2736 33.5554 35.7715C33.2574 37.2695 33.4103 38.8221 33.9948 40.2331C34.5793 41.6441 35.569 42.8501 36.8389 43.6986C38.1087 44.5471 39.6017 45 41.129 45C43.177 45 45.1411 44.1865 46.5893 42.7383C48.0374 41.2902 48.851 39.326 48.851 37.278" fill="#FFE400"/>
<path d="M48.851 0.072998H61.5739L81.2789 45H68.5569L48.851 0.072998Z" fill="#FFE400"/>
<path d="M96.7239 7.795C96.7239 6.26773 96.271 4.77476 95.4225 3.50489C94.574 2.23501 93.368 1.24526 91.957 0.660804C90.546 0.0763438 88.9933 -0.0765775 87.4954 0.221378C85.9975 0.519333 84.6216 1.25478 83.5417 2.33472C82.4617 3.41466 81.7262 4.79059 81.4283 6.28851C81.1303 7.78644 81.2833 9.33907 81.8677 10.7501C82.4522 12.1611 83.442 13.3671 84.7118 14.2156C85.9817 15.0641 87.4747 15.517 89.0019 15.517C91.05 15.517 93.0141 14.7034 94.4622 13.2553C95.9104 11.8071 96.7239 9.843 96.7239 7.795" fill="#FFE400"/>
</svg>
