<svg xmlns="http://www.w3.org/2000/svg" width="46.114" height="31.318" viewBox="0 0 46.114 31.318">
  <g id="logo-kempin-group" transform="translate(-0.183)">
    <path id="Path_2" data-name="Path 2" d="M7.145,0c0,10.406.041,20.81.04,31.216-.017.009-.032.025-.049.026-2.292.049-4.625.074-6.916-.008C.137,31.04.218,9.269.22.6A1.176,1.176,0,0,1,.274,0Z" transform="translate(0)" fill="#fff"/>
    <path id="Path_3" data-name="Path 3" d="M144.738,0,128.01,13.942V0Z" transform="translate(-113.573)" fill="#fff"/>
    <path id="Path_7" data-name="Path 7" d="M227.137,82,203.72,66.548l11.422-8.928C219.116,65.7,223.054,73.7,227.137,82Z" transform="translate(-180.841 -51.195)" fill="#fff"/>
    <path id="Path_8" data-name="Path 8" d="M148.242,169.985s-15.661-.1-21.212-.1V156.07C134.129,160.685,141.25,165.44,148.242,169.985Z" transform="translate(-112.702 -138.666)" fill="#fff"/>
  </g>
</svg>
