<svg width="60" height="52" viewBox="0 0 60 52" fill="none" xmlns="http://www.w3.org/2000/svg">
<g clip-path="url(#clip0_62_15)">
<g clip-path="url(#clip1_62_15)">
<path d="M45.3125 15.9373C44.2188 15.3123 42.8125 15.3123 41.5625 15.9373L32.8125 21.0935L26.875 24.3748L18.2812 29.531C17.1875 30.156 15.7812 30.156 14.5312 29.531L7.8125 25.4685C6.71875 24.8435 5.9375 23.5935 5.9375 22.1873V14.3748C5.9375 13.1248 6.5625 11.8748 7.8125 11.0935L14.5312 7.18726C15.625 6.56226 17.0312 6.56226 18.2812 7.18726L25 11.2498C26.0938 11.8748 26.875 13.1248 26.875 14.531V19.6873L32.8125 16.2498V10.9373C32.8125 9.68726 32.1875 8.43726 30.9375 7.65601L18.4375 0.312256C17.3438 -0.312744 15.9375 -0.312744 14.6875 0.312256L1.875 7.81226C0.625 8.43726 0 9.68726 0 10.9373V25.6248C0 26.8748 0.625 28.1248 1.875 28.906L14.5312 36.2498C15.625 36.8748 17.0312 36.8748 18.2812 36.2498L26.875 31.2498L32.8125 27.8123L41.4062 22.8123C42.5 22.1873 43.9062 22.1873 45.1562 22.8123L51.875 26.7185C52.9688 27.3435 53.75 28.5935 53.75 29.9998V37.8123C53.75 39.0623 53.125 40.3123 51.875 41.0935L45.3125 44.9998C44.2188 45.6248 42.8125 45.6248 41.5625 44.9998L34.8438 41.0935C33.75 40.4685 32.9688 39.2185 32.9688 37.8123V32.8123L27.0312 36.2498V41.406C27.0312 42.656 27.6562 43.906 28.9062 44.6873L41.5625 52.031C42.6562 52.656 44.0625 52.656 45.3125 52.031L57.9687 44.6873C59.0625 44.0623 59.8438 42.8123 59.8438 41.406V26.5623C59.8438 25.3123 59.2187 24.0623 57.9687 23.281L45.3125 15.9373Z" fill="#8247E5"/>
</g>
</g>
<defs>
<clipPath id="clip0_62_15">
<rect width="60" height="52" fill="white"/>
</clipPath>
<clipPath id="clip1_62_15">
<rect width="60" height="52.3438" fill="white"/>
</clipPath>
</defs>
</svg>
