<svg width="32" height="32" viewBox="0 0 32 32" fill="none" xmlns="http://www.w3.org/2000/svg">
<g clip-path="url(#clip0_2286_8)">
<rect width="32" height="32" fill="#00493D"/>
<path d="M11.6504 21.3782V18.8775L16.7426 13.647V13.0833H11.8593V10.667H20.1443V13.4595L15.3236 18.3775V18.9596H20.3533V21.3769L11.6504 21.3782Z" fill="#FFE400"/>
<path d="M8.45402 7.6543H7.11286C5.04768 9.94275 3.90405 12.9194 3.90405 16.0063C3.90405 19.0931 5.04768 22.0698 7.11286 24.3583H8.45402C8.35493 24.1118 6.72822 19.9241 6.72822 16.0063C6.72822 12.0885 8.35357 7.90075 8.45402 7.6543Z" fill="#FFE400"/>
<path d="M23.5498 24.3583H24.891C26.9561 22.0698 28.0998 19.0931 28.0998 16.0063C28.0998 12.9194 26.9561 9.94275 24.891 7.6543L23.5498 7.6543C23.6489 7.90075 25.2756 12.0885 25.2756 16.0063C25.2756 19.9241 23.6489 24.1118 23.5498 24.3583Z" fill="#FFE400"/>
</g>
<defs>
<clipPath id="clip0_2286_8">
<rect width="32" height="32" fill="white"/>
</clipPath>
</defs>
</svg>
