<svg xmlns="http://www.w3.org/2000/svg" width="1982" height="328" fill="none" viewBox="0 0 1982 328"><g fill="#000" clip-path="url(#a)"><path d="M364.5 1c-17.1 3.4-32.6 15.2-40.8 30.7-7.6 14.4-7.2 8.9-7.2 111.8v92l13.8.3 13.7.3V120h163V92H345V72.2c0-19.6 0-19.7 2.8-25.7 3.3-6.8 9.2-12.7 16.1-15.9 4.6-2.1 5-2.1 96.4-2.4L552 28V0l-91.7.1c-50.5.1-93.6.5-95.8.9M646.7.6c-.4.4-.7 53.5-.7 118.1V236h29V120h29.8c33.1 0 38 .7 48.6 6.3 3.4 1.7 8.8 5.9 12.1 9.2 6.4 6.4 7.1 7.6 41 73.7l13.7 26.8h15.4c8.5 0 15.4-.2 15.4-.4s-12.8-25.7-28.5-56.8-28.5-57-28.5-57.5c0-.6 3.3-1.3 7.3-1.7 15.1-1.4 26.1-6.3 36.4-16C871.1 72 858.9 17.6 815 2.7c-6.5-2.2-7-2.2-87-2.5-44.3-.1-80.9 0-81.3.4m164.5 31.2C822.6 37.4 829 47.6 829 60s-6.4 22.6-17.8 28.2l-6.7 3.3-64.7.3-64.8.3V27.9l64.8.3 64.7.3zM994 118v118h28V0h-28zM1158.2 117.7l.3 117.8 60.5.3c38.8.2 63.9-.1 70-.8 61.7-7 107.5-60.4 104.6-122-2.7-58.4-46.8-105.4-105.1-112-5.1-.5-35.1-1-69.8-1H1158zm138.7-86.8c17.1 4.4 32.4 13.4 44.2 25.8 25.2 26.7 31.7 65.8 16.6 98.7-11.2 24.1-31 41.2-57.2 49.3l-9 2.7-52.7.4-52.8.3v-89.4c0-49.1.3-89.7.8-90.1.4-.4 23.4-.6 51.2-.3 47.7.4 51 .5 58.9 2.6M1765.6 1.2c.5.7 20.6 26.9 44.8 58.3 24.1 31.3 44.3 57.5 44.8 58.1.5.7-15.4 22.1-43.7 58.9-24.5 31.7-44.8 58.1-45.1 58.6s7 .9 17.3.9l17.8-.1 36-46.9c19.8-25.8 36.2-46.9 36.5-46.9.3-.1 16.9 21 36.9 46.9l36.3 47h17.4c9.6 0 17.4-.2 17.4-.5s-20.2-26.7-45-58.7c-28.7-37-44.7-58.5-44.1-59.2 7.3-9.3 88.9-115.4 89.5-116.4.6-.9-3.1-1.2-17.1-1.2h-17.8L1911 47.5c-20.1 26.1-36.9 47.4-37.3 47.2-.4-.1-17.1-21.4-37-47.2l-36.2-47-17.8-.3c-14.3-.2-17.7 0-17.1 1M107.7 25.2C103.6 33 79.4 80.4 54 130.5c-25.4 50-47.8 93.8-49.6 97.3-1.9 3.4-3.4 6.7-3.4 7.2 0 .6 6.1 1 15.3 1h15.4l25.4-49.8c13.9-27.3 32.6-63.8 41.4-81.1s16.4-31.5 16.8-31.5c.4-.1 19.4 36.3 42.1 80.9l41.3 81 15.7.3c8.6.1 15.6 0 15.6-.3 0-.2-8.9-17.9-19.8-39.2-11-21.4-36-70.5-55.7-109.3-19.8-38.8-36.7-71.8-37.6-73.3l-1.7-2.9zM1523.5 89.2c-21.9 43.1-47.7 93.5-57.2 112.2-9.5 18.6-17.3 34-17.3 34.2s6.9.4 15.4.4h15.4l6-11.3c3.2-6.1 22-42.9 41.7-81.6 31.6-62.1 36-70.1 37.2-68.5.7.9 19.6 37.7 42 81.6l40.7 79.8h31.6l-9.9-19.3c-5.5-10.5-31.1-60.8-57-111.7-25.9-50.8-47.5-92.8-47.9-93.2-.5-.5-18.8 34.4-40.7 77.4M1625 263.5c-2.6 3.2 1.3 8.1 4.8 5.9 3.4-2.2 2.2-7.4-1.8-7.4-1 0-2.3.7-3 1.5M1221 270.5v7.5h-3.5c-3.1 0-3.5.3-3.5 2.5s.4 2.5 3.5 2.5h3.5v33h5v-33h3.5c3.1 0 3.5-.3 3.5-2.5s-.4-2.5-3.5-2.5h-3.5v-7.5c0-7.3-.1-7.5-2.5-7.5s-2.5.2-2.5 7.5M1333 273.5V284l-4.1-2.9c-13-9.5-30.9-.3-30.9 15.9s17.9 25.4 30.9 15.9l4.1-2.9v3c0 2.5.4 3 2.5 3h2.5v-53h-5zm-6.2 11.2c12.2 8.9 5.1 28.3-9.9 27s-19.2-21.1-5.9-28c4.4-2.3 12-1.8 15.8 1M1741.4 263.9c-8.8 2.2-17.2 10-19.4 17.9-3.5 12.9 2.3 26.8 13.8 32.3 3.6 1.8 6.5 2.3 12.2 2.4 9.1 0 15.3-2.1 20-7 3.3-3.4 3.3-3.5 1.5-4.9-1.8-1.3-2.3-1.1-5.4 1.6-4.7 4.2-9.1 5.8-15.3 5.8-6.7 0-12.3-2.6-16.9-7.7-12.6-14-2.2-36.2 16.9-36.3 6.2 0 10.6 1.6 15.3 5.8 3.1 2.7 3.6 2.9 5.4 1.6 1.8-1.4 1.8-1.5-1.1-4.5-1.6-1.8-4.8-4-7.1-5.1-4.8-2.1-15.2-3.1-19.9-1.9M1918 270.5v7.5h-3.5c-3.1 0-3.5.3-3.5 2.5s.4 2.5 3.5 2.5h3.5v33h5v-33h3.5c3.1 0 3.5-.3 3.5-2.5s-.4-2.5-3.5-2.5h-3.5v-7.5c0-7.3-.1-7.5-2.5-7.5s-2.5.2-2.5 7.5M999.7 265.6c-3 .9-6.5 3.1-9.4 5.9l-4.7 4.5H0v28h986.1l2.4 2.8c1.3 1.5 4.7 4.1 7.7 5.7 16.8 9.2 37.2-3.2 37.2-22.5-.1-11.7-7.1-21.3-17.8-24.5-6.1-1.8-9.7-1.8-15.9.1M1062 289.9V316h5v-12c0-9.5.3-12 1.4-12 .7 0 5.5 5.4 10.5 12 8.1 10.6 9.6 12 12.2 12 3.7 0 3.6-.2-6.9-13.5l-8-10 5.4-1.1c3-.6 6.4-2 7.5-3 5.1-4.6 6.3-11.6 2.9-17.1-3.4-5.6-6-6.6-18.6-7.1l-11.4-.5zm22.2-19.8c3.1 1.7 5 7.1 3.7 10.8-1.5 4.4-5.5 6.1-13.9 6.1h-7v-18h7.6c4.1 0 8.4.5 9.6 1.1M1381 289.9V316h10.8c18.1-.1 24.5-2.7 29.7-12.1 2.6-4.7 3-6.4 2.9-13.4 0-6.6-.4-8.9-2.6-13-5.1-9.8-10.9-12.5-28.4-13.3l-12.4-.5zm23.8-19.7c14.5 3.6 19.9 23.7 9.3 34.8-4.4 4.6-8.9 6-19.8 6h-8.3v-42h7.1c3.8 0 9.1.5 11.7 1.2M1121.7 278.5c-14 4.9-17.2 24.2-5.7 33.8 9.6 8.1 25.7 4.4 30.6-7 1.8-4.1 1.8-12.4 0-16.6-2.6-6.4-11.2-11.8-18.6-11.7-1.4.1-4.2.7-6.3 1.5m14.3 5.7c5.4 3.7 7.2 6.9 7.2 12.8 0 3.6-.6 6-1.9 7.9-6.5 8.7-17 9.5-24.2 1.7-3.5-3.7-4.1-12.7-1.2-17.4 4.5-7 13.7-9.3 20.1-5M1174.7 278.5c-14 4.9-17.2 24.2-5.7 33.8 9.6 8.1 25.7 4.4 30.6-7 1.8-4.1 1.8-12.4 0-16.6-2.6-6.4-11.2-11.8-18.6-11.7-1.4.1-4.2.7-6.3 1.5m14.3 5.7c5.4 3.7 7.2 6.9 7.2 12.8 0 3.6-.6 6-1.9 7.9-6.5 8.7-17 9.5-24.2 1.7-3.5-3.7-4.1-12.7-1.2-17.4 4.5-7 13.7-9.3 20.1-5M1257.5 278.2c-1.6.6-4.3 2.2-5.8 3.7-11.7 10.7-7.3 30.4 7.5 34.1 8.7 2.2 17.2-.5 21.7-6.8l2.2-3.1-2.1-1.1c-1.8-1-2.4-.7-4 1.3-4.3 5.4-13.1 7.2-19.7 4-3.9-1.8-7.3-6.5-7.3-10.1 0-2.2 0-2.2 17-2.2 19 0 18.1.4 15.9-7.5-2.8-9.9-15.1-15.9-25.4-12.3m14.5 6.1c1.9 1.2 4.2 3.7 5.3 5.5l1.9 3.2h-14.6c-13.4 0-14.5-.1-13.9-1.8 2.8-8 14.2-11.7 21.3-6.9M1450.5 278.2c-1.6.6-4.3 2.2-5.8 3.7-11.7 10.7-7.3 30.4 7.5 34.1 8.7 2.2 17.2-.5 21.7-6.8l2.2-3.1-2.1-1.1c-1.8-1-2.4-.7-4 1.3-4.3 5.4-13.1 7.2-19.7 4-3.9-1.8-7.3-6.5-7.3-10.1 0-2.2 0-2.2 17-2.2 19 0 18.1.4 15.9-7.5-2.8-9.9-15.1-15.9-25.4-12.3m14.5 6.1c1.9 1.2 4.2 3.7 5.3 5.5l1.9 3.2h-14.6c-13.4 0-14.5-.1-13.9-1.8 2.8-8 14.2-11.7 21.3-6.9M1503.5 278.2c-1.6.6-4.3 2.2-5.8 3.7-11.7 10.7-7.3 30.4 7.5 34.1 8.7 2.2 17.2-.5 21.7-6.8l2.2-3.1-2.1-1.1c-1.8-1-2.4-.7-4 1.3-4.3 5.4-13.1 7.2-19.7 4-3.9-1.8-7.3-6.5-7.3-10.1 0-2.2 0-2.2 17-2.2 19 0 18.1.4 15.9-7.5-2.8-9.9-15.1-15.9-25.4-12.3m14.5 6.1c1.9 1.2 4.2 3.7 5.3 5.5l1.9 3.2h-14.6c-13.4 0-14.5-.1-13.9-1.8 2.8-8 14.2-11.7 21.3-6.9M1559.4 278c-1.6.5-4.1 2.1-5.4 3.5-3.1 3.3-4 3.2-4-.5 0-2.3-.4-3-2-3-1.9 0-2 .7-2 26s.1 26 2 26 2-.7 2-10v-10l4.6 3.3c4 2.8 5.4 3.2 10.7 3.2 7.3 0 11.4-2 16.1-7.8 2.9-3.6 3.1-4.4 3.1-11.7s-.2-8.1-3.1-11.7c-1.7-2.1-4.5-4.6-6.2-5.6-3.6-2.1-11.5-3-15.8-1.7m13.4 6c12.7 7.8 7.4 28-7.3 28-5.2 0-11.3-3.6-13.7-8s-2-11.5 1-15.7c4.3-6.1 13.7-8.1 20-4.3M1658.2 279.1c-2.4 1.2-4.6 2.8-4.9 3.5-.9 2.5-2.3 1.5-2.3-1.6 0-2.3-.4-3-2-3-1.9 0-2 .7-2 19 0 17.9.1 19 1.9 19 1.7 0 1.9-1.1 2.3-11.8.5-13.2 1.8-17 7.1-20.2 1.8-1.1 4.7-2 6.5-2 8.2 0 10.2 4.1 10.2 21.5V316h5.2l-.4-14.3c-.3-11.1-.7-14.9-2.1-17.4-3.7-6.8-12-9-19.5-5.2M1793.6 279.5c-3.4 2.3-3.6 2.3-3.6.5 0-1.5-.7-2-2.5-2h-2.5v38h5v-12.4c0-6.9.4-13.6.9-14.9 1.4-3.7 5.1-6.7 8.3-6.7 3.3 0 5.8-3.4 3.2-4.4-2.9-1.1-5.1-.6-8.8 1.9M1872.4 278c-1.6.5-4.1 2.1-5.4 3.5-3.1 3.3-4 3.2-4-.5 0-2.3-.4-3-2-3-1.9 0-2 .7-2 26s.1 26 2 26 2-.7 2-10v-10l4.6 3.3c4 2.8 5.4 3.2 10.7 3.2 7.3 0 11.4-2 16.1-7.8 2.9-3.6 3.1-4.4 3.1-11.7s-.2-8.1-3.1-11.7c-1.7-2.1-4.5-4.6-6.2-5.6-3.6-2.1-11.5-3-15.8-1.7m13.4 6c12.7 7.8 7.4 28-7.3 28-5.2 0-11.3-3.6-13.7-8s-2-11.5 1-15.7c4.3-6.1 13.7-8.1 20-4.3M1955.7 278.5c-14 4.9-17.2 24.2-5.7 33.8 9.6 8.1 25.7 4.4 30.6-7 1.8-4.1 1.8-12.4 0-16.6-2.6-6.4-11.2-11.8-18.6-11.7-1.4.1-4.2.7-6.3 1.5m14.3 5.7c5.4 3.7 7.2 6.9 7.2 12.8 0 3.6-.6 6-1.9 7.9-6.5 8.7-17 9.5-24.2 1.7-3.5-3.7-4.1-12.7-1.2-17.4 4.5-7 13.7-9.3 20.1-5M1626 297v19h5v-38h-5zM1811 278.6c0 .4 3.4 8.3 7.6 17.5l7.5 16.8-3.5 8.1c-2 4.5-3.6 8.3-3.6 8.5 0 .3 1.1.5 2.4.5 2.2 0 3.4-2.3 13.1-24.3 5.9-13.3 11-25 11.2-26 .4-1.3-.1-1.7-1.9-1.7-2.1 0-3 1.5-8.2 13.5-3.2 7.5-6.2 13.8-6.6 14-.4.3-3.6-5.8-7-13.5-5.5-12.2-6.7-14-8.7-14-1.3 0-2.3.3-2.3.6"/></g><defs><clipPath id="a"><path fill="#fff" d="M0 0h1982v328H0z"/></clipPath></defs></svg>