<svg width="1283" height="328" viewBox="0 0 1283 328" fill="none" xmlns="http://www.w3.org/2000/svg">
<g clip-path="url(#clip0_2320_103)">
<path d="M450.23 327.58C425.01 327.58 400.69 318.36 386.36 294.04H378.04V320.66H320.7V4H378.04V119.2H386.36C401.08 93.98 428.6 84.26 453.43 84.26C515.38 84.26 557.24 133.8 557.24 203.56C557.24 273.32 511.29 327.46 450.23 327.46V327.59V327.58ZM437.82 276.26C473.15 276.26 498.36 247.33 498.36 205.99C498.36 164.65 472.63 135.72 437.82 135.72C403.01 135.72 378.17 163.24 378.17 205.99C378.17 248.74 403.39 276.26 437.82 276.26ZM663.22 327.58C619.19 327.58 583.35 300.96 583.35 257.31C583.35 213.66 622.77 189.34 670.52 184.35L737.98 177.44V164.64C737.98 144.93 721.85 131.1 693.44 131.1C665.03 131.1 650.69 143 645.7 160.92H590.66C596.16 117.27 632.39 84.25 693.44 84.25C754.49 84.25 791.23 112.67 791.23 168.22V280.22C791.23 294.43 792.64 314.14 793.53 319.64V320.54H738.49C737.98 312.73 737.98 305.44 737.98 297.63H729.66C715.45 320.54 690.62 327.45 663.1 327.45L663.23 327.58H663.22ZM678.84 284.45C716.47 284.45 738.1 256.03 738.1 227.11V215.59L687.54 221.61C656.31 225.32 641.2 234.41 641.2 254.63C641.2 274.85 656.82 284.45 678.83 284.45H678.84ZM929.08 327.58C871.22 327.58 829.88 298.65 823.48 253.21H879.93C886.33 273.43 907.45 282.14 929.47 282.14C951.49 282.14 970.3 272.54 970.3 255.52C970.3 238.5 952.89 233.89 928.96 229.79L904.64 225.69C858.69 217.88 830.27 198.55 830.27 157.34C830.27 116.13 869.69 84.38 924.35 84.38C979.01 84.38 1012.93 109.21 1022.53 152.35H967.49C961.09 135.33 944.07 128.54 924.74 128.54C905.41 128.54 886.21 138.65 886.21 152.86C886.21 167.07 898.11 172.19 922.95 176.28L947.27 180.38C991.81 187.68 1025.73 206.11 1025.73 250.65C1025.73 295.19 985.28 327.83 928.83 327.83L929.09 327.57L929.08 327.58ZM1169.59 327.58C1098.93 327.58 1052.09 279.32 1052.09 205.47C1052.09 131.62 1101.63 84.25 1170.11 84.25C1238.59 84.25 1283.01 137.5 1283.01 207.77V217.88H1108.16C1110.98 256.02 1137.6 278.42 1169.73 278.42C1201.86 278.42 1212.48 269.2 1220.29 253.2H1279.04C1267.14 296.34 1224.38 327.57 1169.73 327.57H1169.6L1169.59 327.58ZM1226.94 179.87C1222.33 149.15 1198.01 131.23 1169.6 131.23C1141.19 131.23 1114.56 148.64 1109.06 179.87H1227.08H1226.95H1226.94Z" fill="black"/>
<path d="M16.82 320.8C7.6 320.8 3 316.19 3 306.98V104.99C3 95.7699 7.61 91.1699 16.82 91.1699H218.8C228.02 91.1699 232.62 95.7799 232.62 104.99V306.97C232.62 316.19 228.01 320.79 218.8 320.79H16.82V320.8Z" fill="#0000FF"/>
</g>
<defs>
<clipPath id="clip0_2320_103">
<rect width="1280" height="323.84" fill="white" transform="translate(3 4)"/>
</clipPath>
</defs>
</svg>
