<svg width="323" height="323" viewBox="0 0 323 323" fill="none" xmlns="http://www.w3.org/2000/svg">
<g clip-path="url(#clip0_2323_72)">
<path d="M214.759 0.537109H107.379C48.3717 0.537109 0.536926 48.3719 0.536926 107.379V214.759C0.536926 273.766 48.3717 321.601 107.379 321.601H214.759C273.766 321.601 321.601 273.766 321.601 214.759V107.379C321.601 48.3719 273.766 0.537109 214.759 0.537109Z" fill="white" stroke="black" stroke-width="1.07379"/>
<mask id="mask0_2323_72" style="mask-type:luminance" maskUnits="userSpaceOnUse" x="131" y="131" width="61" height="61">
<path d="M191.136 161.068C191.136 144.463 177.675 131.002 161.07 131.002C144.465 131.002 131.004 144.463 131.004 161.068C131.004 177.673 144.465 191.134 161.07 191.134C177.675 191.134 191.136 177.673 191.136 161.068Z" fill="white"/>
</mask>
<g mask="url(#mask0_2323_72)">
<path d="M161.07 191.134C177.675 191.134 191.136 177.673 191.136 161.068C191.136 144.463 177.675 131.002 161.07 131.002C144.465 131.002 131.004 144.463 131.004 161.068C131.004 177.673 144.465 191.134 161.07 191.134Z" fill="#5B5B5B"/>
<path d="M207.19 142.829C207.19 157.326 195.652 165.379 181.419 165.379C167.186 165.379 155.648 153.841 155.648 139.608C155.648 125.375 170.408 112.226 184.641 112.226C198.873 112.226 207.19 128.596 207.19 142.829Z" fill="#70FF00"/>
</g>
<path d="M303.879 159.992C303.882 160.351 303.883 160.711 303.883 161.07H197.5C197.5 156.286 196.558 151.548 194.727 147.128C192.896 142.708 190.213 138.692 186.83 135.309C183.447 131.926 179.43 129.242 175.01 127.412C170.59 125.581 165.853 124.638 161.069 124.638V18.2554C161.428 18.2554 161.787 18.2568 162.146 18.2595L162.142 18.2554H207.242C260.615 18.2554 303.883 61.5232 303.883 114.897V159.996L303.879 159.992Z" fill="#70FF00"/>
</g>
<defs>
<clipPath id="clip0_2323_72">
<rect width="323" height="323" fill="white"/>
</clipPath>
</defs>
</svg>
