<svg xmlns="http://www.w3.org/2000/svg" width="189" height="110" fill="none" viewBox="0 0 189 110"><g clip-path="url(#a)"><path fill="#ff7900" d="M114.337 53.219c0-.773.037-1.547.062-2.317l.011-.129-.011-.117c-1.333-15.3-14.618-27.279-30.259-27.279h-5.378a12.4 12.4 0 0 1-5.355 3.54H84.14c13.75 0 25.424 10.499 26.654 23.926a44 44 0 0 0-.07 2.376c0 .79.031 1.571.07 2.367-1.23 13.419-12.904 23.931-26.654 23.931H73.41a12.45 12.45 0 0 1 5.355 3.549h5.378c15.638 0 28.925-11.991 30.259-27.293l.011-.12-.011-.123c-.028-.768-.065-1.55-.065-2.311m0 0c0-.773.037-1.547.062-2.317l.011-.129-.011-.117c-1.333-15.3-14.618-27.279-30.259-27.279h-.958c-.636 1.303-1.448 2.51-2.442 3.54h3.4c13.75 0 25.424 10.499 26.654 23.926a44 44 0 0 0-.07 2.376c0 .79.031 1.571.07 2.367-1.23 13.419-12.904 23.931-26.654 23.931h-4.554a15.3 15.3 0 0 1 3.061 3.549h1.496c15.638 0 28.925-11.991 30.259-27.293l.011-.12-.011-.123c-.025-.768-.065-1.55-.065-2.311m61.406 26.295h-14.702c-13.739 0-25.436-10.512-26.654-23.931.031-.796.064-1.577.064-2.367 0-.807-.033-1.583-.064-2.367 1.221-13.436 12.915-23.934 26.654-23.934h14.702c6.487 0 11.764-5.188 11.764-11.563S182.23 3.784 175.743 3.784h-14.702c-13.436 0-26.066 5.151-35.587 14.478a54 54 0 0 0-2.873 3.081 54 54 0 0 0-2.869-3.08C110.206 8.932 97.571 3.783 84.14 3.783H73.41c2.092.7 3.924 1.938 5.355 3.549h5.378c12.486 0 24.195 4.77 33.015 13.44a46.5 46.5 0 0 1 4.005 4.48l1.423 1.813 1.434-1.812a47 47 0 0 1 4-4.482c8.829-8.669 20.545-13.439 33.026-13.439h14.703c4.493 0 8.159 3.602 8.159 8.02 0 4.425-3.666 8.021-8.159 8.021h-14.703c-15.637 0-28.945 11.98-30.261 27.279l-.02.118.02.117c.025.779.053 1.552.053 2.328s-.028 1.546-.053 2.308l-.02.123.02.12c1.316 15.302 14.621 27.293 30.261 27.293h14.703c4.493 0 8.159 3.591 8.159 8.02 0 4.422-3.666 8.016-8.159 8.016h-14.703c-12.481 0-24.197-4.776-33.026-13.445-1.403-1.395-2.767-2.888-4-4.459l-1.434-1.835-1.423 1.835a47 47 0 0 1-4.005 4.46c-8.82 8.668-20.529 13.444-33.015 13.444h-5.378a12.65 12.65 0 0 1-5.356 3.538h10.734c13.43 0 26.066-5.13 35.572-14.468a53 53 0 0 0 2.868-3.089 53 53 0 0 0 2.874 3.09c9.521 9.338 22.15 14.467 35.587 14.467h14.702c6.487 0 11.764-5.18 11.764-11.555 0-6.383-5.28-11.565-11.767-11.565m-91.603.003h-4.554a15.3 15.3 0 0 1 3.061 3.549l1.493-.003c15.638 0 28.926-11.99 30.259-27.293l.011-.12-.011-.123c-.025-.762-.062-1.547-.062-2.308 0-.773.037-1.547.062-2.317l.011-.129-.011-.117c-1.333-15.3-14.618-27.279-30.259-27.279h-.958c-.636 1.303-1.448 2.51-2.442 3.54h3.4c13.75 0 25.424 10.499 26.654 23.926a44 44 0 0 0-.07 2.376c0 .79.031 1.571.07 2.367-1.23 13.419-12.904 23.931-26.654 23.931"/><path stroke="#ff7900" stroke-miterlimit="10" stroke-width="3.361" d="M114.337 53.219c0-.773.037-1.547.062-2.317l.011-.129-.011-.117c-1.333-15.3-14.618-27.279-30.259-27.279m30.197 29.842c0 .761.037 1.543.065 2.31m-.065-2.31c0 .761.04 1.543.065 2.31m-.065-2.31c0 .761.037 1.546.062 2.308l.011.123-.011.12c-1.333 15.302-14.621 27.293-30.259 27.293l-1.493.003m1.493-59.689h-5.378a12.4 12.4 0 0 1-5.355 3.54H84.14m0-3.54h-.958c-.636 1.303-1.448 2.51-2.442 3.54h3.4m0 0c13.75 0 25.424 10.499 26.654 23.926a44 44 0 0 0-.07 2.376c0 .79.031 1.571.07 2.367-1.23 13.419-12.904 23.931-26.654 23.931m0 0H73.41a12.45 12.45 0 0 1 5.355 3.549h5.378m-.003-3.549h-4.554a15.3 15.3 0 0 1 3.061 3.549m1.496 0c15.638 0 28.925-11.991 30.259-27.293l.011-.12-.011-.123m-30.26 27.536h-1.495m93.096-3.552h-14.702c-13.739 0-25.436-10.512-26.654-23.931.031-.796.064-1.577.064-2.367 0-.807-.033-1.583-.064-2.367 1.221-13.436 12.915-23.934 26.654-23.934h14.702c6.487 0 11.764-5.188 11.764-11.563S182.23 3.784 175.743 3.784h-14.702c-13.436 0-26.066 5.151-35.587 14.478a54 54 0 0 0-2.873 3.081 54 54 0 0 0-2.869-3.08C110.206 8.932 97.571 3.783 84.14 3.783H73.41c2.092.7 3.924 1.938 5.355 3.549h5.378c12.486 0 24.195 4.77 33.015 13.44a46.5 46.5 0 0 1 4.005 4.48l1.423 1.813 1.434-1.812a47 47 0 0 1 4-4.482c8.829-8.669 20.545-13.439 33.026-13.439h14.703c4.493 0 8.159 3.602 8.159 8.02 0 4.425-3.666 8.021-8.159 8.021h-14.703c-15.637 0-28.945 11.98-30.261 27.279l-.02.118.02.117c.025.779.053 1.552.053 2.328s-.028 1.546-.053 2.308l-.02.123.02.12c1.316 15.302 14.621 27.293 30.261 27.293h14.703c4.493 0 8.159 3.591 8.159 8.02 0 4.422-3.666 8.016-8.159 8.016h-14.703c-12.481 0-24.197-4.776-33.026-13.445-1.403-1.395-2.767-2.888-4-4.459l-1.434-1.835-1.423 1.835a47 47 0 0 1-4.005 4.46c-8.82 8.668-20.529 13.444-33.015 13.444h-5.378a12.65 12.65 0 0 1-5.356 3.538h10.734c13.43 0 26.066-5.13 35.572-14.468a53 53 0 0 0 2.868-3.089 53 53 0 0 0 2.874 3.09c9.521 9.338 22.15 14.467 35.587 14.467h14.702c6.487 0 11.764-5.18 11.764-11.555 0-6.383-5.28-11.565-11.767-11.565Z"/><path fill="#ff7900" stroke="#ff7900" stroke-miterlimit="10" stroke-width="3.361" d="M82.65 83.063a15.3 15.3 0 0 0-3.062-3.55 15.68 15.68 0 0 0-10.223-3.755H54.663c-12.647 0-22.924-10.106-22.924-22.54 0-12.408 10.277-22.503 22.924-22.503h14.702c5.014.524 8.806-1.09 11.377-3.798.995-1.03 1.807-2.238 2.443-3.54 2.347-4.874 2.232-11.207-.353-16.044a14.4 14.4 0 0 0-2.61-3.55C77.65 1.27 74.031-.257 69.367.037H54.665c-7.313 0-14.408 1.4-21.077 4.185a53.8 53.8 0 0 0-17.215 11.391C11.4 20.497 7.503 26.18 4.777 32.513A52 52 0 0 0 .5 53.221c0 7.19 1.44 14.145 4.271 20.741 2.726 6.328 6.622 12.005 11.596 16.893a53.9 53.9 0 0 0 17.215 11.389c6.67 2.776 13.764 4.193 21.078 4.193h14.702c3.927 0 7.515-1.437 10.266-3.801a15.3 15.3 0 0 0 3.05-3.538 15.05 15.05 0 0 0 2.291-7.996c0-2.95-.843-5.695-2.32-8.04Zm-27.988 17.161c-6.453 0-12.727-1.24-18.626-3.697-5.692-2.367-10.817-5.742-15.207-10.061a47.2 47.2 0 0 1-10.245-14.94A46.1 46.1 0 0 1 6.822 53.22a46 46 0 0 1 3.762-18.282A47.2 47.2 0 0 1 20.83 20.002 47.8 47.8 0 0 1 36.036 9.938C41.935 7.475 48.209 6.24 54.663 6.24h14.702c11.963-.151 13.022 18.722 0 18.271H54.663c-16.128 0-29.245 12.873-29.245 28.707 0 15.857 13.117 28.741 29.245 28.741h14.702c5.112 0 9.3 4.11 9.3 9.142 0 5.028-4.188 9.123-9.3 9.123z"/></g><defs><clipPath id="a"><path fill="#fff" d="M0 0h189v110H0z"/></clipPath></defs></svg>