<svg xmlns="http://www.w3.org/2000/svg" width="234" height="231" fill="none" viewBox="0 0 234 231"><g clip-path="url(#a)"><path fill="#26356e" d="M102.53 53.66c3.59 9.88-1.91 20.95-1.91 20.95S89.3 69.67 85.7 59.79s1.9-20.94 1.9-20.94 11.32 4.94 14.92 14.81zM42.29 76.88s2.9 12.01 11.99 17.26c9.1 5.26 20.96 1.76 20.96 1.76s-2.9-12.01-12-17.27c-9.11-5.25-20.96-1.75-20.96-1.75zM32.02 135.14s9.94 7.33 20.29 5.51 17.18-12.12 17.18-12.12-9.94-7.34-20.29-5.51c-10.36 1.84-17.18 12.12-17.18 12.12M61.6 186.38s12.34-.77 19.09-8.82 5.37-20.33 5.37-20.33-12.34.76-19.09 8.81c-6.75 8.07-5.37 20.33-5.37 20.33zM117.19 206.62s8.96-8.51 8.96-19.02-8.96-19.02-8.96-19.02-8.96 8.51-8.96 19.03c.01 10.51 8.96 19.02 8.96 19.02zM172.79 186.38s1.39-12.27-5.37-20.33c-6.75-8.05-19.09-8.81-19.09-8.81s-1.39 12.28 5.37 20.33c6.77 8.04 19.09 8.81 19.09 8.81M202.37 135.14s-6.83-10.29-17.18-12.13c-10.34-1.83-20.28 5.52-20.28 5.52s6.83 10.3 17.18 12.13c10.36 1.81 20.29-5.53 20.29-5.53zM192.11 76.88s-11.86-3.5-20.96 1.75-12 17.27-12 17.27 11.86 3.5 20.96-1.75c9.1-5.27 12-17.27 12-17.27M146.78 38.85s-11.33 4.94-14.93 14.81c-3.6 9.88 1.91 20.95 1.91 20.95s11.34-4.94 14.93-14.81c3.57-9.89-1.91-20.94-1.91-20.94zM122.79 112.88c-3.69-3.1-9.16-2.61-12.26 1.07a8.697 8.697 0 0 0 1.08 12.27 8.685 8.685 0 0 0 12.26-1.07c3.1-3.69 2.63-9.18-1.07-12.27z"/><path fill="url(#b)" d="M117.19 58.52s-9.37 8.92-9.37 19.92 9.37 19.92 9.37 19.92 9.38-8.92 9.38-19.92-9.38-19.92-9.38-19.92"/><path fill="url(#c)" d="M78.32 72.67s-1.45 12.85 5.63 21.29c7.07 8.43 19.98 9.23 19.98 9.23s1.45-12.85-5.63-21.28c-7.07-8.43-19.98-9.23-19.98-9.23z"/><path fill="url(#d)" d="M57.63 108.51s7.16 10.78 17.99 12.68c10.84 1.92 21.24-5.77 21.24-5.77s-7.16-10.78-17.99-12.69c-10.84-1.91-21.25 5.78-21.25 5.78z"/><path fill="url(#e)" d="M64.82 149.25s12.41 3.66 21.94-1.85 12.57-18.08 12.57-18.08-12.41-3.65-21.94 1.85-12.56 18.08-12.56 18.08z"/><path fill="url(#f)" d="M96.51 175.85s11.86-5.18 15.62-15.52-2-21.93-2-21.93-11.85 5.18-15.62 15.52 1.99 21.93 1.99 21.93z"/><path fill="url(#g)" d="M137.89 175.85s5.75-11.59 1.99-21.93c-3.77-10.34-15.63-15.52-15.63-15.52s-5.75 11.59-1.98 21.93c3.76 10.34 15.62 15.52 15.62 15.52"/><path fill="url(#h)" d="M169.57 149.25s-3.04-12.58-12.57-18.08-21.94-1.85-21.94-1.85 3.05 12.57 12.57 18.07c9.52 5.51 21.93 1.86 21.93 1.86z"/><path fill="url(#i)" d="M176.76 108.51s-10.42-7.68-21.25-5.77c-10.84 1.91-17.99 12.69-17.99 12.69s10.41 7.68 21.24 5.76c10.84-1.9 17.99-12.68 17.99-12.68z"/><path fill="url(#j)" d="M156.08 72.67s-12.92.82-19.99 9.23c-7.07 8.43-5.62 21.29-5.62 21.29s12.9-.81 19.98-9.24 5.64-21.28 5.64-21.28z"/><path fill="#26356e" d="M117.19 25.21s-7.49 7.12-7.49 15.91 7.49 15.92 7.49 15.92 7.49-7.12 7.49-15.92-7.49-15.91-7.49-15.91M57.15 47.07s-1.16 10.27 4.49 17c5.65 6.74 15.97 7.38 15.97 7.38s1.16-10.27-4.49-17.01-15.97-7.38-15.97-7.38zM25.2 102.41s5.72 8.61 14.37 10.14c8.66 1.53 16.98-4.61 16.98-4.61s-5.71-8.62-14.37-10.14c-8.65-1.53-16.98 4.61-16.98 4.61M36.29 165.35s9.92 2.92 17.53-1.47c7.62-4.4 10.03-14.44 10.03-14.44s-9.9-2.93-17.52 1.47c-7.61 4.39-10.04 14.45-10.04 14.45zM85.25 206.42s9.47-4.14 12.48-12.4-1.59-17.52-1.59-17.52-9.48 4.13-12.49 12.39c-3.02 8.26 1.6 17.52 1.6 17.52zM149.15 206.42s4.6-9.26 1.59-17.52c-3.01-8.25-12.47-12.4-12.47-12.4s-4.6 9.26-1.6 17.52 12.49 12.4 12.49 12.4zM198.1 165.35s-2.43-10.05-10.04-14.44c-7.61-4.4-17.53-1.48-17.53-1.48s2.42 10.05 10.04 14.45c7.6 4.4 17.53 1.47 17.53 1.47M209.2 102.41s-8.32-6.14-16.98-4.61-14.38 10.14-14.38 10.14 8.31 6.14 16.99 4.61c8.65-1.51 14.37-10.14 14.37-10.14M177.25 47.07s-10.32.65-15.96 7.38c-5.65 6.73-4.5 17.01-4.5 17.01s10.31-.65 15.97-7.39c5.65-6.72 4.49-17 4.49-17M98.41 13.01s-5.51 7.46-4.14 15.23c1.36 7.77 9.09 12.9 9.09 12.9s5.51-7.46 4.14-15.23c-1.36-7.76-9.09-12.89-9.09-12.89zM63.09 25.86s-2.62 8.9 1.33 15.72c3.94 6.84 12.95 9.01 12.95 9.01s2.64-8.9-1.32-15.73c-3.93-6.84-12.96-9.01-12.96-9.01zM34.31 50.02s.58 9.26 6.62 14.32c6.04 5.08 15.26 4.03 15.26 4.03s-.58-9.26-6.63-14.32c-6.03-5.08-15.25-4.03-15.25-4.03M15.53 82.56s3.71 8.5 11.12 11.19c7.41 2.71 15.72-1.43 15.72-1.43s-3.71-8.51-11.12-11.19c-7.4-2.7-15.71 1.43-15.71 1.43zM9.01 119.56s6.39 6.73 14.27 6.71c7.89 0 14.28-6.72 14.28-6.72s-6.39-6.73-14.28-6.71c-7.88 0-14.27 6.72-14.27 6.72M15.54 156.57s8.3 4.14 15.7 1.42c7.42-2.69 11.12-11.19 11.12-11.19s-8.3-4.14-15.71-1.42c-7.41 2.69-11.11 11.19-11.11 11.19M34.33 189.11s9.21 1.04 15.24-4.04c6.05-5.06 6.62-14.31 6.62-14.31s-9.21-1.05-15.25 4.03c-6.03 5.06-6.6 14.32-6.6 14.32zM63.11 213.26s9.01-2.17 12.94-9c3.96-6.83 1.32-15.72 1.32-15.72s-9.01 2.16-12.95 9.01c-3.93 6.82-1.32 15.72-1.32 15.72zM98.41 226.11s7.74-5.12 9.09-12.89c1.37-7.77-4.15-15.23-4.15-15.23s-7.72 5.12-9.08 12.9c-1.36 7.76 4.14 15.22 4.14 15.22M135.99 226.11s5.51-7.46 4.13-15.22c-1.36-7.77-9.1-12.89-9.1-12.89s-5.51 7.44-4.12 15.21c1.37 7.76 9.09 12.89 9.09 12.89zM171.29 213.26s2.64-8.9-1.33-15.72c-3.94-6.84-12.96-9-12.96-9s-2.63 8.88 1.33 15.7c3.94 6.82 12.95 9.01 12.95 9.01zM200.07 189.11s-.57-9.27-6.62-14.33c-6.03-5.08-15.26-4.02-15.26-4.02s.57 9.25 6.62 14.31c6.04 5.06 15.25 4.04 15.25 4.04zM218.86 156.57s-3.69-8.51-11.12-11.2c-7.4-2.71-15.71 1.44-15.71 1.44s3.69 8.5 11.12 11.19c7.4 2.68 15.7-1.42 15.7-1.42zM225.39 119.56s-6.4-6.73-14.28-6.72c-7.89-.01-14.27 6.72-14.27 6.72s6.37 6.73 14.27 6.71c7.88-.01 14.28-6.71 14.28-6.71M218.87 82.56s-8.31-4.14-15.71-1.43c-7.42 2.68-11.12 11.19-11.12 11.19s8.29 4.15 15.71 1.42c7.4-2.71 11.12-11.19 11.12-11.19zM200.09 50.02s-9.22-1.05-15.26 4.03c-6.05 5.06-6.62 14.32-6.62 14.32s9.2 1.06 15.25-4.03c6.02-5.07 6.63-14.31 6.63-14.31zM171.31 25.86s-9.04 2.17-12.97 9.01c-3.96 6.81-1.32 15.72-1.32 15.72s9.01-2.15 12.95-9.02c3.92-6.82 1.34-15.72 1.34-15.72zM135.99 13s-7.75 5.13-9.1 12.9c-1.39 7.76 4.14 15.23 4.14 15.23s7.74-5.1 9.09-12.9C141.47 20.48 136 13 136 13zM79.1 14.44s-3.26 6.57-1.13 12.42c2.13 5.87 8.85 8.79 8.85 8.79s3.26-6.57 1.13-12.43-8.84-8.79-8.84-8.79zM20.74 63.41s1.71 7.13 7.11 10.25c5.4 3.11 12.43 1.04 12.43 1.04s-1.72-7.12-7.12-10.24c-5.38-3.12-12.42-1.05-12.42-1.05M7.49 138.45s5.9 4.37 12.03 3.28c6.15-1.08 10.2-7.19 10.2-7.19s-5.9-4.34-12.04-3.27-10.2 7.17-10.2 7.17zM45.59 204.44s7.32-.45 11.31-5.22c4.03-4.78 3.21-12.05 3.21-12.05s-7.31.45-11.34 5.23c-4 4.76-3.19 12.04-3.19 12.04zM117.18 230.5s5.32-5.05 5.31-11.27c.01-6.25-5.29-11.3-5.29-11.3s-5.31 5.04-5.31 11.29c-.01 6.22 5.29 11.27 5.29 11.27zM188.79 204.46s.83-7.3-3.17-12.06c-4.01-4.79-11.33-5.25-11.33-5.25s-.82 7.27 3.19 12.06c3.99 4.77 11.31 5.25 11.31 5.25M226.89 138.47s-4.06-6.12-10.18-7.19c-6.14-1.1-12.05 3.25-12.05 3.25s4.05 6.11 10.2 7.2c6.13 1.09 12.03-3.25 12.03-3.25zM213.66 63.44s-7.04-2.08-12.41 1.03c-5.43 3.1-7.15 10.23-7.15 10.23s7.03 2.08 12.43-1.04c5.4-3.1 7.13-10.22 7.13-10.22M155.31 14.45s-6.73 2.93-8.85 8.77c-2.15 5.86 1.09 12.44 1.09 12.44s6.73-2.93 8.86-8.8c2.15-5.86-1.1-12.41-1.1-12.41M117.19 0s-4.43 4.21-4.43 9.42 4.43 9.41 4.43 9.41 4.43-4.21 4.43-9.41c0-5.21-4.43-9.42-4.43-9.42M40.7 27.84s-.68 6.08 2.66 10.06c3.35 3.99 9.45 4.37 9.45 4.37s.68-6.08-2.66-10.06c-3.34-3.99-9.44-4.37-9.44-4.37zM0 98.34s3.38 5.1 8.51 6c5.12.9 10.04-2.73 10.04-2.73s-3.38-5.1-8.51-6C4.92 94.71 0 98.34 0 98.34M14.14 178.51s5.85 1.73 10.38-.88c4.5-2.6 5.93-8.54 5.93-8.54s-5.86-1.73-10.37.87-5.94 8.54-5.94 8.54zM76.5 230.83s5.6-2.43 7.38-7.34c1.78-4.88-.95-10.35-.95-10.35s-5.6 2.45-7.38 7.33c-1.77 4.89.95 10.36.95 10.36M157.9 230.83s2.72-5.47.93-10.37c-1.77-4.88-7.38-7.32-7.38-7.32s-2.71 5.47-.94 10.36c1.79 4.89 7.39 7.33 7.39 7.33M220.26 178.51s-1.43-5.94-5.96-8.55c-4.49-2.6-10.36-.87-10.36-.87s1.44 5.94 5.94 8.55c4.51 2.59 10.37.87 10.37.87zM234.4 98.34s-4.92-3.62-10.06-2.72c-5.12.9-8.49 6-8.49 6s4.91 3.63 10.05 2.73c5.12-.92 8.5-6.01 8.5-6.01M193.7 27.84s-6.1.38-9.46 4.38c-3.35 3.98-2.65 10.05-2.65 10.05s6.1-.38 9.45-4.37c3.34-3.99 2.66-10.06 2.66-10.06"/></g><defs><linearGradient id="b" x1="107.82" x2="126.57" y1="78.44" y2="78.44" gradientUnits="userSpaceOnUse"><stop stop-color="#2e6294"/><stop offset="1" stop-color="#284275"/></linearGradient><linearGradient id="c" x1="78.2" x2="104.05" y1="87.93" y2="87.93" gradientUnits="userSpaceOnUse"><stop stop-color="#2e6294"/><stop offset="1" stop-color="#284275"/></linearGradient><linearGradient id="d" x1="57.63" x2="96.87" y1="111.96" y2="111.96" gradientUnits="userSpaceOnUse"><stop stop-color="#2e6294"/><stop offset="1" stop-color="#284275"/></linearGradient><linearGradient id="e" x1="64.82" x2="99.32" y1="139.29" y2="139.29" gradientUnits="userSpaceOnUse"><stop stop-color="#2e6294"/><stop offset="1" stop-color="#284275"/></linearGradient><linearGradient id="f" x1="93.24" x2="113.4" y1="157.12" y2="157.12" gradientUnits="userSpaceOnUse"><stop stop-color="#2e6294"/><stop offset="1" stop-color="#284275"/></linearGradient><linearGradient id="g" x1="120.99" x2="141.15" y1="157.12" y2="157.12" gradientUnits="userSpaceOnUse"><stop stop-color="#2e6294"/><stop offset="1" stop-color="#284275"/></linearGradient><linearGradient id="h" x1="135.07" x2="169.57" y1="139.29" y2="139.29" gradientUnits="userSpaceOnUse"><stop stop-color="#2e6294"/><stop offset="1" stop-color="#284275"/></linearGradient><linearGradient id="i" x1="137.52" x2="176.76" y1="111.96" y2="111.96" gradientUnits="userSpaceOnUse"><stop stop-color="#2e6294"/><stop offset="1" stop-color="#284275"/></linearGradient><linearGradient id="j" x1="130.34" x2="156.2" y1="87.94" y2="87.94" gradientUnits="userSpaceOnUse"><stop stop-color="#2e6294"/><stop offset="1" stop-color="#284275"/></linearGradient><clipPath id="a"><path fill="#fff" d="M0 0h234v231H0z"/></clipPath></defs></svg>