<svg width="234" height="231" viewBox="0 0 234 231" fill="none" xmlns="http://www.w3.org/2000/svg">
<g clip-path="url(#clip0_2323_83)">
<path d="M102.53 53.6601C106.12 63.5401 100.62 74.6101 100.62 74.6101C100.62 74.6101 89.3 69.6701 85.7 59.7901C82.1 49.9101 87.6 38.8501 87.6 38.8501C87.6 38.8501 98.92 43.7901 102.52 53.6601H102.53Z" fill="#26356E"/>
<path d="M42.29 76.8802C42.29 76.8802 45.19 88.8902 54.28 94.1402C63.38 99.4002 75.24 95.9002 75.24 95.9002C75.24 95.9002 72.34 83.8902 63.24 78.6302C54.13 73.3802 42.28 76.8802 42.28 76.8802H42.29Z" fill="#26356E"/>
<path d="M32.02 135.14C32.02 135.14 41.96 142.47 52.31 140.65C62.66 138.83 69.49 128.53 69.49 128.53C69.49 128.53 59.55 121.19 49.2 123.02C38.84 124.86 32.02 135.14 32.02 135.14Z" fill="#26356E"/>
<path d="M61.6 186.38C61.6 186.38 73.94 185.61 80.69 177.56C87.44 169.51 86.06 157.23 86.06 157.23C86.06 157.23 73.72 157.99 66.97 166.04C60.22 174.11 61.6 186.37 61.6 186.37V186.38Z" fill="#26356E"/>
<path d="M117.19 206.62C117.19 206.62 126.15 198.11 126.15 187.6C126.15 177.09 117.19 168.58 117.19 168.58C117.19 168.58 108.23 177.09 108.23 187.61C108.24 198.12 117.19 206.63 117.19 206.63V206.62Z" fill="#26356E"/>
<path d="M172.79 186.38C172.79 186.38 174.18 174.11 167.42 166.05C160.67 158 148.33 157.24 148.33 157.24C148.33 157.24 146.94 169.52 153.7 177.57C160.47 185.61 172.79 186.38 172.79 186.38Z" fill="#26356E"/>
<path d="M202.37 135.14C202.37 135.14 195.54 124.85 185.19 123.01C174.85 121.18 164.91 128.53 164.91 128.53C164.91 128.53 171.74 138.83 182.09 140.66C192.45 142.47 202.38 135.13 202.38 135.13L202.37 135.14Z" fill="#26356E"/>
<path d="M192.11 76.8802C192.11 76.8802 180.25 73.3802 171.15 78.6302C162.05 83.8802 159.15 95.9002 159.15 95.9002C159.15 95.9002 171.01 99.4002 180.11 94.1502C189.21 88.8802 192.11 76.8802 192.11 76.8802Z" fill="#26356E"/>
<path d="M146.78 38.8501C146.78 38.8501 135.45 43.7901 131.85 53.6601C128.25 63.5401 133.76 74.6101 133.76 74.6101C133.76 74.6101 145.1 69.6701 148.69 59.8001C152.26 49.9101 146.78 38.8601 146.78 38.8601V38.8501Z" fill="#26356E"/>
<path d="M122.79 112.88C119.1 109.78 113.63 110.27 110.53 113.95C107.43 117.64 107.92 123.13 111.61 126.22C115.3 129.32 120.77 128.84 123.87 125.15C126.97 121.46 126.5 115.97 122.8 112.88H122.79Z" fill="#26356E"/>
<path d="M117.19 58.52C117.19 58.52 107.82 67.44 107.82 78.44C107.82 89.44 117.19 98.36 117.19 98.36C117.19 98.36 126.57 89.44 126.57 78.44C126.57 67.44 117.19 58.52 117.19 58.52Z" fill="url(#paint0_linear_2323_83)"/>
<path d="M78.3199 72.6699C78.3199 72.6699 76.8699 85.5199 83.9499 93.9599C91.0199 102.39 103.93 103.19 103.93 103.19C103.93 103.19 105.38 90.3399 98.2999 81.9099C91.2299 73.4799 78.3199 72.6799 78.3199 72.6799V72.6699Z" fill="url(#paint1_linear_2323_83)"/>
<path d="M57.63 108.51C57.63 108.51 64.79 119.29 75.62 121.19C86.46 123.11 96.86 115.42 96.86 115.42C96.86 115.42 89.7 104.64 78.87 102.73C68.03 100.82 57.62 108.51 57.62 108.51H57.63Z" fill="url(#paint2_linear_2323_83)"/>
<path d="M64.8199 149.25C64.8199 149.25 77.2299 152.91 86.7599 147.4C96.2899 141.89 99.3299 129.32 99.3299 129.32C99.3299 129.32 86.9199 125.67 77.3899 131.17C67.8599 136.67 64.8299 149.25 64.8299 149.25H64.8199Z" fill="url(#paint3_linear_2323_83)"/>
<path d="M96.51 175.85C96.51 175.85 108.37 170.67 112.13 160.33C115.89 149.99 110.13 138.4 110.13 138.4C110.13 138.4 98.28 143.58 94.51 153.92C90.74 164.26 96.5 175.85 96.5 175.85H96.51Z" fill="url(#paint4_linear_2323_83)"/>
<path d="M137.89 175.85C137.89 175.85 143.64 164.26 139.88 153.92C136.11 143.58 124.25 138.4 124.25 138.4C124.25 138.4 118.5 149.99 122.27 160.33C126.03 170.67 137.89 175.85 137.89 175.85Z" fill="url(#paint5_linear_2323_83)"/>
<path d="M169.57 149.25C169.57 149.25 166.53 136.67 157 131.17C147.47 125.67 135.06 129.32 135.06 129.32C135.06 129.32 138.11 141.89 147.63 147.39C157.15 152.9 169.56 149.25 169.56 149.25H169.57Z" fill="url(#paint6_linear_2323_83)"/>
<path d="M176.76 108.51C176.76 108.51 166.34 100.83 155.51 102.74C144.67 104.65 137.52 115.43 137.52 115.43C137.52 115.43 147.93 123.11 158.76 121.19C169.6 119.29 176.75 108.51 176.75 108.51H176.76Z" fill="url(#paint7_linear_2323_83)"/>
<path d="M156.08 72.6699C156.08 72.6699 143.16 73.4899 136.09 81.8999C129.02 90.3299 130.47 103.19 130.47 103.19C130.47 103.19 143.37 102.38 150.45 93.9499C157.53 85.5199 156.09 72.6699 156.09 72.6699H156.08Z" fill="url(#paint8_linear_2323_83)"/>
<path d="M117.19 25.21C117.19 25.21 109.7 32.33 109.7 41.12C109.7 49.91 117.19 57.04 117.19 57.04C117.19 57.04 124.68 49.92 124.68 41.12C124.68 32.32 117.19 25.21 117.19 25.21Z" fill="#26356E"/>
<path d="M57.1501 47.0701C57.1501 47.0701 55.99 57.3401 61.64 64.0701C67.29 70.8101 77.61 71.4501 77.61 71.4501C77.61 71.4501 78.7701 61.1801 73.1201 54.4401C67.4701 47.7001 57.1501 47.0601 57.1501 47.0601V47.0701Z" fill="#26356E"/>
<path d="M25.2 102.41C25.2 102.41 30.92 111.02 39.57 112.55C48.2299 114.08 56.5499 107.94 56.5499 107.94C56.5499 107.94 50.84 99.32 42.18 97.8C33.53 96.27 25.2 102.41 25.2 102.41Z" fill="#26356E"/>
<path d="M36.29 165.35C36.29 165.35 46.21 168.27 53.82 163.88C61.44 159.48 63.85 149.44 63.85 149.44C63.85 149.44 53.95 146.51 46.33 150.91C38.72 155.3 36.29 165.36 36.29 165.36V165.35Z" fill="#26356E"/>
<path d="M85.25 206.42C85.25 206.42 94.72 202.28 97.73 194.02C100.74 185.76 96.14 176.5 96.14 176.5C96.14 176.5 86.66 180.63 83.65 188.89C80.63 197.15 85.25 206.41 85.25 206.41V206.42Z" fill="#26356E"/>
<path d="M149.15 206.42C149.15 206.42 153.75 197.16 150.74 188.9C147.73 180.65 138.27 176.5 138.27 176.5C138.27 176.5 133.67 185.76 136.67 194.02C139.67 202.28 149.16 206.42 149.16 206.42H149.15Z" fill="#26356E"/>
<path d="M198.1 165.35C198.1 165.35 195.67 155.3 188.06 150.91C180.45 146.51 170.53 149.43 170.53 149.43C170.53 149.43 172.95 159.48 180.57 163.88C188.17 168.28 198.1 165.35 198.1 165.35Z" fill="#26356E"/>
<path d="M209.2 102.41C209.2 102.41 200.88 96.27 192.22 97.8C183.56 99.33 177.84 107.94 177.84 107.94C177.84 107.94 186.15 114.08 194.83 112.55C203.48 111.04 209.2 102.41 209.2 102.41Z" fill="#26356E"/>
<path d="M177.25 47.0698C177.25 47.0698 166.93 47.7198 161.29 54.4498C155.64 61.1798 156.79 71.4598 156.79 71.4598C156.79 71.4598 167.1 70.8098 172.76 64.0698C178.41 57.3498 177.25 47.0698 177.25 47.0698Z" fill="#26356E"/>
<path d="M98.41 13.0098C98.41 13.0098 92.9 20.4698 94.27 28.2398C95.63 36.0098 103.36 41.1398 103.36 41.1398C103.36 41.1398 108.87 33.6798 107.5 25.9098C106.14 18.1498 98.41 13.0198 98.41 13.0198V13.0098Z" fill="#26356E"/>
<path d="M63.09 25.8601C63.09 25.8601 60.4699 34.7601 64.4199 41.5801C68.3599 48.4201 77.37 50.5901 77.37 50.5901C77.37 50.5901 80.01 41.6901 76.05 34.8601C72.12 28.0201 63.09 25.8501 63.09 25.8501V25.8601Z" fill="#26356E"/>
<path d="M34.3101 50.02C34.3101 50.02 34.8901 59.28 40.9301 64.34C46.9701 69.42 56.1901 68.37 56.1901 68.37C56.1901 68.37 55.6101 59.11 49.5601 54.05C43.5301 48.97 34.3101 50.02 34.3101 50.02Z" fill="#26356E"/>
<path d="M15.53 82.5601C15.53 82.5601 19.24 91.0601 26.65 93.7501C34.06 96.4601 42.37 92.3201 42.37 92.3201C42.37 92.3201 38.66 83.8101 31.25 81.1301C23.85 78.4301 15.54 82.5601 15.54 82.5601H15.53Z" fill="#26356E"/>
<path d="M9.01001 119.56C9.01001 119.56 15.4 126.29 23.28 126.27C31.17 126.27 37.56 119.55 37.56 119.55C37.56 119.55 31.17 112.82 23.28 112.84C15.4 112.84 9.01001 119.56 9.01001 119.56Z" fill="#26356E"/>
<path d="M15.54 156.57C15.54 156.57 23.84 160.71 31.24 157.99C38.66 155.3 42.36 146.8 42.36 146.8C42.36 146.8 34.06 142.66 26.65 145.38C19.24 148.07 15.54 156.57 15.54 156.57Z" fill="#26356E"/>
<path d="M34.33 189.11C34.33 189.11 43.54 190.15 49.57 185.07C55.62 180.01 56.19 170.76 56.19 170.76C56.19 170.76 46.98 169.71 40.94 174.79C34.91 179.85 34.34 189.11 34.34 189.11H34.33Z" fill="#26356E"/>
<path d="M63.1099 213.26C63.1099 213.26 72.1199 211.09 76.0499 204.26C80.0099 197.43 77.3699 188.54 77.3699 188.54C77.3699 188.54 68.3599 190.7 64.4199 197.55C60.4899 204.37 63.0999 213.27 63.0999 213.27L63.1099 213.26Z" fill="#26356E"/>
<path d="M98.41 226.11C98.41 226.11 106.15 220.99 107.5 213.22C108.87 205.45 103.35 197.99 103.35 197.99C103.35 197.99 95.6299 203.11 94.2699 210.89C92.9099 218.65 98.41 226.11 98.41 226.11Z" fill="#26356E"/>
<path d="M135.99 226.11C135.99 226.11 141.5 218.65 140.12 210.89C138.76 203.12 131.02 198 131.02 198C131.02 198 125.51 205.44 126.9 213.21C128.27 220.97 135.99 226.1 135.99 226.1V226.11Z" fill="#26356E"/>
<path d="M171.29 213.26C171.29 213.26 173.93 204.36 169.96 197.54C166.02 190.7 157 188.54 157 188.54C157 188.54 154.37 197.42 158.33 204.24C162.27 211.06 171.28 213.25 171.28 213.25L171.29 213.26Z" fill="#26356E"/>
<path d="M200.07 189.11C200.07 189.11 199.5 179.84 193.45 174.78C187.42 169.7 178.19 170.76 178.19 170.76C178.19 170.76 178.76 180.01 184.81 185.07C190.85 190.13 200.06 189.11 200.06 189.11H200.07Z" fill="#26356E"/>
<path d="M218.86 156.57C218.86 156.57 215.17 148.06 207.74 145.37C200.34 142.66 192.03 146.81 192.03 146.81C192.03 146.81 195.72 155.31 203.15 158C210.55 160.68 218.85 156.58 218.85 156.58L218.86 156.57Z" fill="#26356E"/>
<path d="M225.39 119.56C225.39 119.56 218.99 112.83 211.11 112.84C203.22 112.83 196.84 119.56 196.84 119.56C196.84 119.56 203.21 126.29 211.11 126.27C218.99 126.26 225.39 119.56 225.39 119.56Z" fill="#26356E"/>
<path d="M218.87 82.5599C218.87 82.5599 210.56 78.4199 203.16 81.1299C195.74 83.8099 192.04 92.32 192.04 92.32C192.04 92.32 200.33 96.4699 207.75 93.7399C215.15 91.0299 218.87 82.55 218.87 82.55V82.5599Z" fill="#26356E"/>
<path d="M200.09 50.02C200.09 50.02 190.87 48.97 184.83 54.05C178.78 59.11 178.21 68.37 178.21 68.37C178.21 68.37 187.41 69.43 193.46 64.34C199.48 59.27 200.09 50.03 200.09 50.03V50.02Z" fill="#26356E"/>
<path d="M171.31 25.8601C171.31 25.8601 162.27 28.0301 158.34 34.8701C154.38 41.6801 157.02 50.5901 157.02 50.5901C157.02 50.5901 166.03 48.4401 169.97 41.5701C173.89 34.7501 171.31 25.8501 171.31 25.8501V25.8601Z" fill="#26356E"/>
<path d="M135.99 13C135.99 13 128.24 18.13 126.89 25.9C125.5 33.66 131.03 41.13 131.03 41.13C131.03 41.13 138.77 36.03 140.12 28.23C141.47 20.48 136 13 136 13H135.99Z" fill="#26356E"/>
<path d="M79.1 14.4402C79.1 14.4402 75.84 21.0102 77.97 26.8602C80.1 32.7302 86.82 35.6502 86.82 35.6502C86.82 35.6502 90.08 29.0802 87.95 23.2202C85.82 17.3602 79.11 14.4302 79.11 14.4302L79.1 14.4402Z" fill="#26356E"/>
<path d="M20.74 63.4099C20.74 63.4099 22.45 70.5399 27.85 73.6599C33.25 76.7699 40.28 74.6999 40.28 74.6999C40.28 74.6999 38.56 67.5799 33.16 64.4599C27.78 61.3399 20.74 63.4099 20.74 63.4099Z" fill="#26356E"/>
<path d="M7.48998 138.45C7.48998 138.45 13.39 142.82 19.52 141.73C25.67 140.65 29.72 134.54 29.72 134.54C29.72 134.54 23.82 130.2 17.68 131.27C11.54 132.34 7.47998 138.44 7.47998 138.44L7.48998 138.45Z" fill="#26356E"/>
<path d="M45.59 204.44C45.59 204.44 52.91 203.99 56.9 199.22C60.93 194.44 60.11 187.17 60.11 187.17C60.11 187.17 52.8 187.62 48.77 192.4C44.77 197.16 45.58 204.44 45.58 204.44H45.59Z" fill="#26356E"/>
<path d="M117.18 230.5C117.18 230.5 122.5 225.45 122.49 219.23C122.5 212.98 117.2 207.93 117.2 207.93C117.2 207.93 111.89 212.97 111.89 219.22C111.88 225.44 117.18 230.49 117.18 230.49V230.5Z" fill="#26356E"/>
<path d="M188.79 204.46C188.79 204.46 189.62 197.16 185.62 192.4C181.61 187.61 174.29 187.15 174.29 187.15C174.29 187.15 173.47 194.42 177.48 199.21C181.47 203.98 188.79 204.46 188.79 204.46Z" fill="#26356E"/>
<path d="M226.89 138.47C226.89 138.47 222.83 132.35 216.71 131.28C210.57 130.18 204.66 134.53 204.66 134.53C204.66 134.53 208.71 140.64 214.86 141.73C220.99 142.82 226.89 138.48 226.89 138.48V138.47Z" fill="#26356E"/>
<path d="M213.66 63.4398C213.66 63.4398 206.62 61.3598 201.25 64.4698C195.82 67.5698 194.1 74.6998 194.1 74.6998C194.1 74.6998 201.13 76.7798 206.53 73.6598C211.93 70.5598 213.66 63.4398 213.66 63.4398Z" fill="#26356E"/>
<path d="M155.31 14.4502C155.31 14.4502 148.58 17.3802 146.46 23.2202C144.31 29.0802 147.55 35.6602 147.55 35.6602C147.55 35.6602 154.28 32.7302 156.41 26.8602C158.56 21.0002 155.31 14.4502 155.31 14.4502Z" fill="#26356E"/>
<path d="M117.19 0C117.19 0 112.76 4.21 112.76 9.42C112.76 14.63 117.19 18.83 117.19 18.83C117.19 18.83 121.62 14.62 121.62 9.42C121.62 4.21 117.19 0 117.19 0Z" fill="#26356E"/>
<path d="M40.7 27.8398C40.7 27.8398 40.02 33.9198 43.36 37.8998C46.71 41.8898 52.81 42.2698 52.81 42.2698C52.81 42.2698 53.49 36.1898 50.15 32.2098C46.81 28.2198 40.71 27.8398 40.71 27.8398H40.7Z" fill="#26356E"/>
<path d="M0 98.3402C0 98.3402 3.38 103.44 8.51 104.34C13.63 105.24 18.55 101.61 18.55 101.61C18.55 101.61 15.17 96.5102 10.04 95.6102C4.92 94.7102 0 98.3402 0 98.3402Z" fill="#26356E"/>
<path d="M14.14 178.51C14.14 178.51 19.99 180.24 24.52 177.63C29.02 175.03 30.45 169.09 30.45 169.09C30.45 169.09 24.59 167.36 20.08 169.96C15.57 172.56 14.14 178.5 14.14 178.5V178.51Z" fill="#26356E"/>
<path d="M76.5 230.83C76.5 230.83 82.1 228.4 83.88 223.49C85.66 218.61 82.93 213.14 82.93 213.14C82.93 213.14 77.33 215.59 75.55 220.47C73.78 225.36 76.5 230.83 76.5 230.83Z" fill="#26356E"/>
<path d="M157.9 230.83C157.9 230.83 160.62 225.36 158.83 220.46C157.06 215.58 151.45 213.14 151.45 213.14C151.45 213.14 148.74 218.61 150.51 223.5C152.3 228.39 157.9 230.83 157.9 230.83Z" fill="#26356E"/>
<path d="M220.26 178.51C220.26 178.51 218.83 172.57 214.3 169.96C209.81 167.36 203.94 169.09 203.94 169.09C203.94 169.09 205.38 175.03 209.88 177.64C214.39 180.23 220.25 178.51 220.25 178.51H220.26Z" fill="#26356E"/>
<path d="M234.4 98.3398C234.4 98.3398 229.48 94.7198 224.34 95.6198C219.22 96.5198 215.85 101.62 215.85 101.62C215.85 101.62 220.76 105.25 225.9 104.35C231.02 103.43 234.4 98.3398 234.4 98.3398Z" fill="#26356E"/>
<path d="M193.7 27.8398C193.7 27.8398 187.6 28.2198 184.24 32.2198C180.89 36.1998 181.59 42.2698 181.59 42.2698C181.59 42.2698 187.69 41.8898 191.04 37.8998C194.38 33.9098 193.7 27.8398 193.7 27.8398Z" fill="#26356E"/>
</g>
<defs>
<linearGradient id="paint0_linear_2323_83" x1="107.82" y1="78.44" x2="126.57" y2="78.44" gradientUnits="userSpaceOnUse">
<stop stop-color="#2E6294"/>
<stop offset="1" stop-color="#284275"/>
</linearGradient>
<linearGradient id="paint1_linear_2323_83" x1="78.1999" y1="87.9299" x2="104.05" y2="87.9299" gradientUnits="userSpaceOnUse">
<stop stop-color="#2E6294"/>
<stop offset="1" stop-color="#284275"/>
</linearGradient>
<linearGradient id="paint2_linear_2323_83" x1="57.63" y1="111.96" x2="96.87" y2="111.96" gradientUnits="userSpaceOnUse">
<stop stop-color="#2E6294"/>
<stop offset="1" stop-color="#284275"/>
</linearGradient>
<linearGradient id="paint3_linear_2323_83" x1="64.8199" y1="139.29" x2="99.32" y2="139.29" gradientUnits="userSpaceOnUse">
<stop stop-color="#2E6294"/>
<stop offset="1" stop-color="#284275"/>
</linearGradient>
<linearGradient id="paint4_linear_2323_83" x1="93.24" y1="157.12" x2="113.4" y2="157.12" gradientUnits="userSpaceOnUse">
<stop stop-color="#2E6294"/>
<stop offset="1" stop-color="#284275"/>
</linearGradient>
<linearGradient id="paint5_linear_2323_83" x1="120.99" y1="157.12" x2="141.15" y2="157.12" gradientUnits="userSpaceOnUse">
<stop stop-color="#2E6294"/>
<stop offset="1" stop-color="#284275"/>
</linearGradient>
<linearGradient id="paint6_linear_2323_83" x1="135.07" y1="139.29" x2="169.57" y2="139.29" gradientUnits="userSpaceOnUse">
<stop stop-color="#2E6294"/>
<stop offset="1" stop-color="#284275"/>
</linearGradient>
<linearGradient id="paint7_linear_2323_83" x1="137.52" y1="111.96" x2="176.76" y2="111.96" gradientUnits="userSpaceOnUse">
<stop stop-color="#2E6294"/>
<stop offset="1" stop-color="#284275"/>
</linearGradient>
<linearGradient id="paint8_linear_2323_83" x1="130.34" y1="87.9399" x2="156.2" y2="87.9399" gradientUnits="userSpaceOnUse">
<stop stop-color="#2E6294"/>
<stop offset="1" stop-color="#284275"/>
</linearGradient>
<clipPath id="clip0_2323_83">
<rect width="234" height="231" fill="white"/>
</clipPath>
</defs>
</svg>
