<svg width="1283" height="328" viewBox="0 0 1283 328" fill="none" xmlns="http://www.w3.org/2000/svg">
<g clip-path="url(#clip0_2320_90)">
<path d="M369.154 192.277C369.154 194.521 367.264 196.411 364.902 196.411H286.586C288.594 215.783 303.124 233.502 323.677 233.502C337.734 233.502 348.128 228.186 355.924 216.965C356.751 215.783 357.933 214.957 359.35 214.957C361.594 214.957 363.248 216.61 363.248 218.855C363.248 219.681 363.012 220.272 362.658 220.863C354.743 234.565 339.033 241.298 323.677 241.298C297.335 241.298 278.436 217.673 278.436 192.513C278.436 167.235 297.217 143.728 323.677 143.728C350.018 143.728 369.036 167.117 369.154 192.277ZM360.768 188.615C359.114 169.243 344.23 151.524 323.677 151.524C303.124 151.524 288.594 169.243 286.586 188.615H360.768ZM464.243 145.618C466.488 145.618 468.141 147.626 468.141 149.516C468.141 151.761 466.488 153.414 464.243 153.414H443.217V235.982C443.217 237.991 441.564 239.88 439.319 239.88C437.075 239.88 435.421 237.872 435.421 235.982V153.414H415.222C412.978 153.414 411.324 151.761 411.324 149.516C411.324 147.508 412.978 145.618 415.222 145.618H435.421V115.497C435.421 113.489 436.957 111.599 438.965 111.363C441.446 111.126 443.336 112.898 443.336 115.261V145.618H464.243ZM592.525 185.544V235.51C592.525 237.754 590.517 239.408 588.627 239.408C586.383 239.408 584.729 237.754 584.729 235.51V185.544C584.729 168.652 575.161 151.879 556.379 151.879C532.282 151.879 521.887 172.905 523.305 194.521C523.305 195.112 523.541 197.592 523.541 197.947V235.392C523.541 237.4 522.005 239.29 519.997 239.526C517.517 239.762 515.627 237.991 515.627 235.628V71.319C515.627 69.3109 517.281 67.4209 519.525 67.4209C521.769 67.4209 523.423 69.429 523.423 71.319V164.164C530.156 152.115 542.205 143.965 556.261 143.965C579.413 143.965 592.525 164.164 592.525 185.544ZM733.209 192.277C733.209 194.521 731.319 196.411 728.957 196.411H650.641C652.65 215.783 667.179 233.502 687.732 233.502C701.789 233.502 712.184 228.186 719.98 216.965C720.807 215.783 721.988 214.957 723.405 214.957C725.65 214.957 727.303 216.61 727.303 218.855C727.303 219.681 727.067 220.272 726.713 220.863C718.798 234.565 703.088 241.298 687.732 241.298C661.391 241.298 642.491 217.673 642.491 192.513C642.491 167.235 661.273 143.728 687.732 143.728C713.955 143.728 732.973 167.117 733.209 192.277ZM724.705 188.615C723.051 169.243 708.167 151.524 687.614 151.524C667.179 151.524 652.531 169.243 650.523 188.615H724.705ZM829.362 149.28C829.362 151.761 827.944 153.178 825.7 153.533C802.666 156.958 792.271 175.74 792.271 197.592V235.037C792.271 237.046 790.735 238.935 788.727 239.172C786.247 239.408 784.357 237.636 784.357 235.274V149.871C784.357 147.863 785.892 145.973 787.9 145.736C790.381 145.5 792.271 147.272 792.271 149.635V166.999C798.768 156.013 811.643 145.618 825.109 145.618C827.117 145.618 829.362 147.036 829.362 149.28ZM958.234 192.277C958.234 194.521 956.344 196.411 953.981 196.411H875.666C877.674 215.783 892.203 233.502 912.756 233.502C926.813 233.502 937.208 228.186 945.004 216.965C945.831 215.783 947.012 214.957 948.429 214.957C950.674 214.957 952.328 216.61 952.328 218.855C952.328 219.681 952.091 220.272 951.737 220.863C943.823 234.565 928.112 241.298 912.756 241.298C886.415 241.298 867.515 217.673 867.515 192.513C867.515 167.235 886.297 143.728 912.756 143.728C939.098 143.728 958.116 167.117 958.234 192.277ZM949.847 188.615C948.193 169.243 933.31 151.524 912.756 151.524C892.203 151.524 877.674 169.243 875.666 188.615H949.847ZM1084.86 150.225V235.982C1084.86 238.227 1082.85 239.88 1080.96 239.88C1078.72 239.88 1077.07 238.227 1077.07 235.982V219.681C1070.57 232.557 1059.11 241.889 1044.46 241.889C1021.19 241.889 1008.32 221.69 1008.32 200.309V150.107C1008.32 148.099 1009.97 146.209 1012.22 146.209C1014.46 146.209 1016.11 148.217 1016.11 150.107V200.309C1016.11 217.201 1025.68 233.974 1044.46 233.974C1070.8 233.974 1077.07 209.287 1077.07 182V149.989C1077.07 147.626 1079.55 145.264 1082.38 146.327C1083.8 147.036 1084.86 148.571 1084.86 150.225ZM1283.19 185.19V235.392C1283.19 237.636 1281.18 239.29 1279.29 239.29C1277.05 239.29 1275.39 237.636 1275.39 235.392V185.19C1275.39 168.298 1265.83 151.761 1247.04 151.761C1223.42 151.761 1214.44 177.039 1214.44 196.647V235.392C1214.44 237.636 1212.43 239.29 1210.54 239.29C1208.3 239.29 1206.65 237.636 1206.65 235.392V185.19C1206.65 168.298 1197.08 151.761 1178.3 151.761C1154.44 151.761 1144.63 170.542 1145.46 195.584C1145.46 196.175 1145.69 197.238 1145.46 197.592V235.274C1145.46 237.282 1143.92 239.172 1141.92 239.408C1139.43 239.644 1137.54 237.872 1137.54 235.51V149.871C1137.54 147.863 1139.08 145.973 1141.09 145.736C1143.57 145.5 1145.46 147.272 1145.46 149.635V163.927C1152.19 151.879 1164.24 143.965 1178.3 143.965C1194.24 143.965 1206.65 154.123 1211.73 168.889C1218.22 154.241 1230.86 143.965 1247.04 143.965C1270.08 143.965 1283.19 163.927 1283.19 185.19Z" fill="#3B3B3B"/>
<path opacity="0.6" d="M105.504 229.131L203.664 171.132L105.504 126.6L7.46155 171.132L105.504 229.131Z" fill="black"/>
<path opacity="0.45" d="M105.504 126.6V8.35889L7.46155 171.132L105.504 229.131V126.6Z" fill="black"/>
<path opacity="0.8" d="M105.504 229.131L203.664 171.132L105.504 8.35889V126.6V229.131Z" fill="black"/>
<path opacity="0.45" d="M105.504 247.676L7.46155 189.796L105.504 328V247.676Z" fill="black"/>
<path opacity="0.8" d="M203.664 189.796L105.504 247.676V328L203.664 189.796Z" fill="black"/>
</g>
<defs>
<clipPath id="clip0_2320_90">
<rect width="1283" height="328" fill="white"/>
</clipPath>
</defs>
</svg>
