<svg width="157" height="59" viewBox="0 0 157 59" fill="none" xmlns="http://www.w3.org/2000/svg">
<g clip-path="url(#clip0_4330_20477)">
<path d="M84.4728 30.993C84.4728 29.4472 84.1494 28.0744 83.4986 26.8784C82.8517 25.6787 81.9507 24.7481 80.7993 24.0828C79.648 23.4137 78.3388 23.083 76.8679 23.083C75.397 23.083 74.0762 23.4137 72.9056 24.0828C71.7351 24.7481 70.8186 25.6787 70.1486 26.8784C69.4825 28.0744 69.1475 29.4203 69.1475 30.9084C69.1475 32.3966 69.4902 33.7656 70.1794 34.9653C70.8648 36.1613 71.839 37.0957 73.0943 37.761C74.3535 38.4262 75.7936 38.7608 77.4185 38.7608C78.6969 38.7608 79.8521 38.5493 80.8879 38.1224C81.9237 37.6994 82.7901 37.0803 83.487 36.2689L81.9468 34.4731C80.8263 35.7075 79.3438 36.3266 77.5071 36.3266C75.9977 36.3266 74.7347 35.9152 73.7181 35.0961C72.7054 34.2732 72.1086 33.1888 71.9353 31.8352H84.415C84.4535 31.4852 84.4728 31.2084 84.4728 30.993V30.993ZM71.9353 29.8356C72.0893 28.5204 72.6168 27.4591 73.5179 26.6477C74.4151 25.8363 75.5317 25.4287 76.8679 25.4287C78.204 25.4287 79.3207 25.8402 80.2218 26.6592C81.1189 27.4822 81.6465 28.5397 81.8005 29.8356H71.9353Z" fill="white"/>
<path d="M94.8925 36.0647L107.603 20.2715V18.2988H91.2036V20.8214H103.772L91.0034 36.6146V38.5873H107.981V36.0647H94.8925V36.0647Z" fill="white"/>
<path d="M124.927 18.2988H122.055L112.855 38.5873H115.84L123.479 21.256L124.634 23.8747L127.861 31.1964H122.563L121.539 33.5151H128.878L131.111 38.5873H134.157L124.927 18.2988Z" fill="white"/>
<path d="M152.004 31.777C153.437 31.2733 154.542 30.4734 155.316 29.3698C156.09 28.27 156.475 26.9356 156.475 25.3706C156.475 23.1671 155.72 21.4405 154.211 20.1831C152.701 18.9256 150.634 18.2988 148 18.2988H140.079V38.5873H142.979V20.8214H147.915C149.752 20.8214 151.153 21.2098 152.124 21.9943C153.09 22.7749 153.572 23.9016 153.572 25.3706C153.572 26.8395 153.09 27.9701 152.124 28.7622C151.153 29.5544 149.752 29.9504 147.915 29.9504H147.588L149.278 32.3538L153.66 38.5873H156.825L152.004 31.777V31.777Z" fill="white"/>
</g>
<path fill-rule="evenodd" clip-rule="evenodd" d="M29.5 53.9539C43.0055 53.9539 53.9539 43.0055 53.9539 29.5C53.9539 15.9945 43.0055 5.04605 29.5 5.04605C15.9945 5.04605 5.04605 15.9945 5.04605 29.5C5.04605 43.0055 15.9945 53.9539 29.5 53.9539ZM29.5 59C45.7924 59 59 45.7924 59 29.5C59 13.2076 45.7924 0 29.5 0C13.2076 0 0 13.2076 0 29.5C0 45.7924 13.2076 59 29.5 59Z" fill="white"/>
<path d="M36.4495 37.1697C36.877 36.9232 37.249 36.7206 37.6094 36.4993C41.5492 34.0809 43.7784 30.5773 43.9237 25.9477C44.154 18.607 38.608 12.9163 31.1131 12.851C26.9141 12.8145 22.7149 12.8078 18.5156 12.8099V17.9104C22.5583 17.9132 26.6008 17.9225 30.6432 17.953C31.9868 17.9633 33.4276 18.2507 34.6481 18.7995C37.6999 20.1722 39.3216 23.591 38.7288 26.8885C38.1181 30.2868 35.3365 32.7468 31.6516 33.0558C30.3897 33.1617 29.3484 33.492 28.8829 34.7824C28.4184 36.0697 28.9983 37.0216 29.89 37.9023C32.1544 40.1386 34.3908 42.4033 36.6539 44.6407H43.953C41.4755 42.174 38.9926 39.7019 36.4495 37.1697Z" fill="white"/>
<path d="M23.6821 44.6394V28.0458C26.2367 28.0458 28.6118 28.1337 30.9742 27.9972C31.7829 27.9504 32.8406 27.5401 33.271 26.9325C33.7015 26.3243 33.7169 25.2007 33.5046 24.4133C33.2216 23.3635 32.2134 22.9689 31.1299 22.9666C28.0137 22.9602 24.8974 22.9545 21.7814 22.964C19.4558 22.9712 18.5885 23.8542 18.5872 26.1965C18.5839 32.2558 18.5862 38.3151 18.5865 44.3744V44.6394H23.6821V44.6394Z" fill="#FE5E41"/>
<defs>
<clipPath id="clip0_4330_20477">
<rect width="87.6779" height="20.4615" fill="white" transform="translate(69.1475 18.2988)"/>
</clipPath>
</defs>
</svg>
