<svg width="2228" height="328" viewBox="0 0 2228 328" fill="none" xmlns="http://www.w3.org/2000/svg">
<g clip-path="url(#clip0_2320_72)">
<g clip-path="url(#clip1_2320_72)">
<path d="M144.689 144.621V194.914H237.458C225.91 229.955 194.996 257.999 148.406 257.999C96.473 257.999 59.7917 216.357 59.7917 164C59.7917 111.643 98.113 70.0007 151.7 70.0007C176.163 70.0007 196.581 78.2417 211.82 91.7171C218.024 97.4024 226.539 107.229 229.627 120.472H289.624C289.624 120.472 290.007 104.96 279.921 85.2391C279.921 85.2391 279.921 85.2117 279.893 85.1981C273.921 73.5541 264.286 60.4341 248.733 48.1887L248.433 47.9564C222.835 26.7457 188.873 14.3364 148.803 14.3364C63.0717 14.3227 0 79.4581 0 163.973C0 248.528 63.058 313.65 148.393 313.65C233.741 313.65 297.223 250.168 297.223 167.717V144.621H144.703H144.689ZM1017.58 311.19V16.8101H1075.7V311.176H1017.58V311.19ZM777.428 144.101C777.428 134.179 774.148 125.159 768.504 117.998L708.726 177.762C716.188 183.571 725.386 186.7 734.843 186.673C746.145 186.714 756.997 182.231 764.992 174.25C772.987 166.255 777.456 155.404 777.428 144.101ZM599.625 186.523C588.323 186.564 577.471 182.095 569.476 174.1C561.495 166.105 557.012 155.267 557.04 143.965C557.04 134.166 560.32 125.132 565.95 117.861L625.728 177.612C618.28 183.448 609.082 186.591 599.625 186.523ZM553.404 105.561C544.302 116.385 539.314 130.079 539.341 144.224C539.355 167.622 552.912 188.901 574.123 198.795C595.32 208.69 620.344 205.424 638.288 190.404L667.302 219.391L696.303 190.404C714.247 205.424 739.271 208.69 760.482 198.795C781.679 188.887 795.236 167.608 795.25 144.211C795.25 130.079 790.275 116.399 781.2 105.561L807.7 79.0754C823.28 104.687 831.494 134.097 831.439 164.068C831.439 254.692 757.981 328 667.439 328C576.897 328 503.439 254.569 503.439 164.068C503.152 134.097 511.284 104.646 526.918 79.0754L553.404 105.561ZM667.425 194.299L797.532 64.2607C793.883 59.6141 790.015 55.1041 785.97 50.8401C755.056 18.3544 712.156 -0.0272649 667.302 6.84407e-05C622.448 -0.0409316 579.549 18.3407 548.635 50.8401C544.521 54.9674 540.749 59.4091 537.319 64.1241L667.425 194.299ZM768.149 63.1401L667.316 163.932L566.483 63.1401C593.215 36.1484 628.885 21.3474 667.316 21.3474C705.733 21.3474 741.266 36.1484 768.149 63.1401ZM316.479 16.8101H369.683L427.876 191.525H431.429L426.81 16.8101H484.647V311.176H431.457L373.264 136.106H369.724L374.344 311.176H316.493V16.8101H316.479ZM978.26 177.749C972.889 169.617 966.466 162.223 959.168 155.759L916.241 116.809C910.173 111.233 905.813 105.876 903.134 100.682C900.551 95.8581 899.185 90.4734 899.144 84.9931C899.144 79.1164 900.715 74.4424 903.859 70.9574C907.016 67.4587 911.252 65.7231 916.596 65.7231C922.896 65.7231 927.516 67.5407 930.413 71.1624C933.324 74.7977 934.786 80.1141 934.786 87.0841V105.739H991.216V90.0224C991.216 77.4491 989.754 66.4884 986.843 57.1404C983.945 47.7787 979.463 40.0434 973.395 33.8934C967.327 27.4701 959.509 22.6594 949.929 19.4341C940.362 16.2361 930.905 14.6234 916.596 14.6234C904.706 14.6234 893.923 16.2361 884.22 19.4341C875.008 22.3587 866.562 27.3061 859.483 33.8934C853.429 40.0434 848.577 47.6967 844.942 56.9217C841.293 66.1467 839.475 76.7521 839.475 88.7651C839.475 99.6437 841.115 109.771 844.395 119.119C847.634 128.398 852.226 137.159 858.034 145.085C863.856 153.039 870.512 160.515 878.029 167.499L919.138 204.781C924.714 210.084 928.841 215.387 931.506 220.689C934.185 226.006 935.511 232.415 935.511 239.959C935.511 246.929 933.816 252.451 930.427 256.496C927.024 260.541 922.295 262.564 916.254 262.564C910.2 262.564 905.458 260.405 902.055 256.072C898.652 251.74 896.971 245.959 896.971 238.688V209.168H840.527V234.493C840.527 247.339 841.99 258.71 844.901 268.632C847.798 278.54 852.171 286.713 857.993 293.136C864.553 300.12 872.781 305.286 882.73 308.634C892.666 311.996 902.178 313.664 916.254 313.664C929.101 313.664 940.376 311.86 950.066 308.211C959.318 304.862 967.75 299.587 974.802 292.713C981.362 286.016 986.378 277.843 989.89 268.208C993.416 258.573 995.166 247.476 995.166 234.903C995.166 224.024 993.703 213.829 990.792 204.33C987.922 194.9 983.699 185.962 978.26 177.749ZM1237.52 177.749C1232.15 169.617 1225.72 162.223 1218.42 155.759L1175.51 116.809C1169.44 111.233 1165.07 105.876 1162.39 100.682C1159.81 95.8581 1158.44 90.4734 1158.4 84.9931C1158.4 79.1164 1159.97 74.4424 1163.13 70.9574C1166.27 67.4587 1170.52 65.7231 1175.87 65.7231C1182.15 65.7231 1186.77 67.5407 1189.67 71.1624C1192.58 74.7977 1194.04 80.1141 1194.04 87.0841V105.739H1250.49V90.0224C1250.49 77.4491 1249.02 66.4884 1246.11 57.1404C1243.2 47.7787 1238.72 40.0434 1232.65 33.8934C1226.6 27.4701 1218.78 22.6594 1209.2 19.4341C1199.62 16.2361 1190.16 14.6234 1175.85 14.6234C1163.96 14.6234 1153.19 16.2361 1143.49 19.4341C1134.28 22.3587 1125.83 27.3061 1118.75 33.8934C1112.69 40.0434 1107.83 47.6967 1104.2 56.9217C1100.56 66.1467 1098.73 76.7521 1098.73 88.7651C1098.73 99.6437 1100.37 109.771 1103.65 119.119C1106.89 128.398 1111.48 137.159 1117.29 145.085C1123.24 153.176 1129.93 160.679 1137.3 167.499L1178.41 204.781C1183.98 210.084 1188.1 215.387 1190.78 220.689C1193.44 226.006 1194.78 232.415 1194.78 239.959C1194.78 246.929 1193.09 252.451 1189.7 256.496C1186.28 260.541 1181.57 262.564 1175.51 262.564C1169.46 262.564 1164.71 260.405 1161.33 256.072C1157.91 251.74 1156.23 245.959 1156.23 238.688V209.168H1099.8V234.493C1099.8 247.339 1101.26 258.71 1104.17 268.632C1107.07 278.54 1111.43 286.713 1117.25 293.136C1123.81 300.12 1132.05 305.286 1141.99 308.634C1151.92 311.996 1161.45 313.664 1175.51 313.664C1188.36 313.664 1199.65 311.86 1209.34 308.211C1218.59 304.862 1227.02 299.587 1234.07 292.713C1240.8 285.715 1245.94 277.365 1249.16 268.208C1252.67 258.573 1254.44 247.476 1254.44 234.903C1254.5 224.557 1253.03 214.252 1250.06 204.33C1247.19 194.9 1242.96 185.962 1237.52 177.749Z" fill="black"/>
<path d="M943.014 177.667H963.363V198.016H943L943.014 177.667Z" fill="#FFFAFB"/>
<path d="M2068.33 313.308V18.8188H2103.05L2182.79 204.002C2185.35 209.565 2189.21 220.717 2191.35 228.425H2193.08C2193.08 218.995 2192.64 207.856 2192.64 202.28V18.8188H2227.79V313.308H2194.36L2113.35 125.979C2109.93 117.26 2106.94 108.39 2104.34 99.3975H2102.62C2103.05 107.543 2103.05 120.403 2103.05 127.688V313.308H2068.33ZM1969.23 313.308V18.8188H2005.67V313.308H1969.23ZM1745.64 313.308L1816.38 18.8188H1860.1L1931.69 313.308H1893.97L1874.67 233.577H1800.52L1782.08 313.308H1745.64ZM1806.51 202.28H1868.67L1847.24 105.397C1844.67 95.1198 1841.24 74.9615 1839.1 62.1012H1836.95C1834.38 76.5878 1831.52 91.0198 1828.38 105.397L1806.51 202.28ZM1549.19 313.308V18.8188H1585.62V147.832H1671.78V18.8188H1707.79V313.308H1671.78V179.976H1585.62V313.295L1549.19 313.308ZM1409.72 318.447C1344.12 318.447 1318.83 269.151 1318.83 165.845C1318.83 61.2538 1350.55 13.6665 1415.72 13.6665C1471.01 13.6665 1498.02 48.8172 1498.02 127.264H1462.87C1462.87 74.9752 1450.01 45.8105 1413.15 45.8105C1376.27 45.8105 1356.13 77.9682 1356.13 155.991V178.268C1356.13 255.006 1374.14 286.727 1411 286.727C1446.58 286.727 1463.3 261.006 1463.3 205.711H1497.59C1497.59 284.581 1466.3 318.447 1409.72 318.447Z" fill="#5EAA78"/>
</g>
</g>
<defs>
<clipPath id="clip0_2320_72">
<rect width="2228" height="328" fill="white"/>
</clipPath>
<clipPath id="clip1_2320_72">
<rect width="2227.67" height="328" fill="white"/>
</clipPath>
</defs>
</svg>
