<svg width="177" height="62" viewBox="0 0 177 62" fill="none" xmlns="http://www.w3.org/2000/svg">
<path d="M22.9144 46.4379V38.7059L38.6354 22.5339V20.7909H23.5594V13.3199H49.1374V21.9539L34.2544 37.1599V38.9599H49.7824V46.4339L22.9144 46.4379Z" fill="#FFE400"/>
<path d="M80.1934 40.896C79.082 42.8602 77.4721 44.4964 75.5261 45.6394C73.5802 46.7824 71.3671 47.3918 69.1104 47.406C60.5414 47.406 53.7764 39.932 53.7764 29.817C53.7764 19.894 60.5414 12.417 69.1104 12.417C71.3589 12.432 73.5644 13.0344 75.5083 14.1646C77.4522 15.2947 79.0669 16.9134 80.1924 18.86V13.32H89.1484V46.437H80.1924L80.1934 40.896ZM71.3024 39.096C73.1392 39.0637 74.9336 38.5383 76.4977 37.5748C78.0619 36.6112 79.3383 35.245 80.1934 33.619V26.142C79.3316 24.5215 78.0537 23.1598 76.491 22.1972C74.9283 21.2345 73.1373 20.7056 71.3024 20.665C66.6024 20.665 62.8024 24.465 62.8024 29.814C62.8024 35.291 66.6024 39.092 71.3024 39.092" fill="#FFE400"/>
<path d="M105.064 26.013V46.437H95.8503V13.32H105.064V18.668C106.177 16.7962 107.75 15.2396 109.633 14.1458C111.516 13.0521 113.647 12.4573 115.824 12.418V22.598C111.968 22.5753 108.202 23.7704 105.064 26.013Z" fill="#FFE400"/>
<path d="M129.806 40.896V59.323H120.85V13.323H129.806V18.993C130.915 17.0218 132.522 15.3768 134.467 14.2232C136.413 13.0697 138.627 12.4481 140.888 12.421C149.457 12.421 156.288 19.895 156.288 29.946C156.288 39.933 149.458 47.406 140.888 47.406C138.638 47.3621 136.437 46.7402 134.496 45.6002C132.555 44.4602 130.94 42.8402 129.806 40.896ZM129.806 26.27V33.486C130.633 35.1451 131.899 36.5452 133.467 37.5337C135.035 38.5221 136.844 39.0608 138.697 39.091C143.465 39.091 147.266 35.291 147.266 29.942C147.266 24.53 143.466 20.664 138.697 20.664C136.849 20.7161 135.049 21.2637 133.485 22.2497C131.921 23.2358 130.65 24.6239 129.806 26.269" fill="#FFE400"/>
<path d="M17.6434 0.36499H12.7304C5.16521 8.72202 0.97583 19.5924 0.97583 30.865C0.97583 42.1376 5.16521 53.008 12.7304 61.365H17.6434C17.2804 60.465 11.3214 45.172 11.3214 30.865C11.3214 16.558 17.2754 1.26499 17.6434 0.36499Z" fill="#FFE400"/>
<path d="M160.25 61.365H165.163C172.729 53.008 176.918 42.1376 176.918 30.865C176.918 19.5924 172.729 8.72202 165.163 0.36499L160.25 0.36499C160.613 1.26499 166.572 16.558 166.572 30.865C166.572 45.172 160.613 60.465 160.25 61.365Z" fill="#FFE400"/>
</svg>
