<svg xmlns="http://www.w3.org/2000/svg" width="36.235" height="40.923" viewBox="0 0 36.235 40.923">
  <g id="logo-sf" transform="translate(0 0)">
    <path id="Path_24" data-name="Path 24" d="M0,11.678,6.588.291c.178.035.224.2.3.323Q8.952,4.178,11,7.749c.652,1.134,1.323,2.255,1.97,3.392.046.082.078.183.215.216.336-.485.643-1,.933-1.518.524-.942,1.068-1.873,1.611-2.8.775-1.326,1.539-2.658,2.306-3.988.5-.868,1-1.735,1.518-2.595A.54.54,0,0,1,19.774.26l6.631,11.424H13.172a.936.936,0,0,1-.53.13H.525A.721.721,0,0,1,0,11.678Z" transform="translate(0 -0.243)" fill="#fff"/>
    <path id="Path_25" data-name="Path 25" d="M257.851,450.562a.049.049,0,0,1,.042-.012.173.173,0,0,1,.088.035c.426.607.763,1.267,1.134,1.906,1.107,1.911,2.217,3.822,3.31,5.742.635,1.116,1.308,2.21,1.929,3.333.067.121.169.234.114.392q-5.334.023-10.667.043c-.846,0-1.692-.023-2.538-.035a.532.532,0,0,1,.115-.4c1.261-2.2,2.541-4.384,3.814-6.575.786-1.354,1.561-2.715,2.342-4.073A.893.893,0,0,1,257.851,450.562Z" transform="translate(-234.819 -421.077)" fill="#fff" opacity="0.59"/>
    <path id="Path_26" data-name="Path 26" d="M352.74,286.838l6.579-11.458,6.583,11.473a.755.755,0,0,1-.494.132H353.255a.653.653,0,0,1-.491-.131Z" transform="translate(-329.666 -257.367)" fill="#fff" opacity="0.59"/>
    <path id="Path_27" data-name="Path 27" d="M113.9.017l-6.608,11.419L100.71.048C102.416.031,104.122,0,105.828,0,108.518,0,111.207.011,113.9.017Z" transform="translate(-94.122 0)" fill="#fff" opacity="0.59"/>
    <path id="Path_28" data-name="Path 28" d="M0,174.82l13.172.006-6.6,11.449Z" transform="translate(0 -163.385)" fill="#fff" opacity="0.59"/>
    <path id="Path_29" data-name="Path 29" d="M163.444,450.75l-6.588,11.4-6.616-11.4Z" transform="translate(-140.412 -421.265)" fill="#fff"/>
    <path id="Path_30" data-name="Path 30" d="M353.1,450.78h13.138l-6.586,11.393Z" transform="translate(-330.003 -421.293)" fill="#fff"/>
    <path id="Path_31" data-name="Path 31" d="M162.14,252.608l.691-1.531a4.883,4.883,0,0,0,3.624.8c.421-.08.808-.266.849-.77s-.322-.7-.7-.817c-.735-.228-1.488-.4-2.227-.615-1.251-.366-2.152-1.049-2.026-2.509a2.553,2.553,0,0,1,2.314-2.337,6.057,6.057,0,0,1,4.282.606l-.617,1.531a4.528,4.528,0,0,0-3.168-.578c-.445.1-.808.336-.833.833s.357.7.756.812c.74.215,1.5.374,2.233.6,1.115.34,2,.93,1.986,2.254a2.444,2.444,0,0,1-2.01,2.448A6.426,6.426,0,0,1,162.14,252.608Z" transform="translate(-151.534 -228.677)" fill="#fff"/>
    <path id="Path_32" data-name="Path 32" d="M294.364,252.826v3.1H292.39V247.38h6.458v1.589h-4.459V251.2h3.936v1.622Z" transform="translate(-273.264 -231.198)" fill="#fff"/>
  </g>
</svg>
