<svg xmlns="http://www.w3.org/2000/svg" width="302" height="328" fill="none" viewBox="0 0 302 328"><g clip-path="url(#a)"><path fill="#dbb826" d="M271.906 291.937c-19.539 23.108 71.532-45.494 6.732-109.616 0 0-20.531-27.585-73.299-47.194C161.764 118.933 96.249 61.636 74.355 0c0 0-33.996 74.555-11.464 158.157 0 0 43.136 20.275 82.777 15.914 0 0 70.807-1.618 100.6 16.708 0 0 37.584 19.012 42.632 50.862 0 0 4.035 25.424-16.994 50.296"/><path fill="#e7c81d" d="M121.338 193.147a2.475 2.475 0 0 1 4.836-1.067c2.058 9.332-.012 19.049-5.676 26.661-7.076 9.512-18.836 14.46-30.688 12.913-3.756-.489-7.042-1.484-10.043-3.039-8.056-4.165-16.647-6.894-25.54-8.109a2.474 2.474 0 0 1-2.117-2.788 2.463 2.463 0 0 1 2.785-2.12c9.457 1.295 18.588 4.195 27.147 8.62 2.484 1.287 5.232 2.112 8.404 2.525 10.081 1.318 20.074-2.881 26.082-10.956 4.807-6.46 6.559-14.712 4.81-22.64m-11.956-7.587c1.816 1.882 3.017 3.905 4.016 6.753 2.27 6.486 1.216 13.605-2.83 19.041-4.405 5.92-11.746 8.995-19.162 8.024-2.327-.3-4.216-.857-5.95-1.753-21.138-10.932-44.68-12.788-66.172-6.788a215 215 0 0 0 3.174 6.858c5.341-1.44 10.833-2.409 16.457-2.728a2.477 2.477 0 0 1 2.613 2.331 2.466 2.466 0 0 1-2.329 2.612c-4.939.28-9.764 1.107-14.473 2.312a209 209 0 0 0 3.604 6.709c15.781-3.492 32.717-1.636 48.026 6.282 3.782 1.957 7.867 3.2 12.484 3.802 14.526 1.899 28.94-4.172 37.62-15.837 7.456-10.022 9.776-22.9 6.411-34.917-7.64-.628-15.833-1.839-24.339-3.617.286.304.56.614.85.916M1.344 146.196a157 157 0 0 1 13.634-3.116c-2.55-1.975-5.032-4-7.42-6.094a150 150 0 0 0-7.026 1.766c.192 2.148.454 4.642.812 7.444M165.158 326.011c4.493.802 9.108 1.416 13.797 1.787l-7.403-5.507c-2.093 1.318-4.237 2.534-6.394 3.72M237.622 240.326l34.35 25.559a53.6 53.6 0 0 0 1.111-8.434l-28.984-21.566a2.48 2.48 0 0 1-.937-2.542c1.786-7.757 2.921-15.58 3.485-23.408a114 114 0 0 0-7.14-4.817c-.365 8.329-1.409 16.687-3.232 25.001a2.467 2.467 0 0 1-2.947 1.888 2.473 2.473 0 0 1-1.888-2.946 141.6 141.6 0 0 0 3.234-26.787 152 152 0 0 0-6.484-3.467s-.348-.185-1.002-.496c.112 15.067-2.286 29.911-7.256 44.278l48.022 35.73a70 70 0 0 0 2.673-7.268l-35.959-26.756a2.475 2.475 0 1 1 2.954-3.969"/><path fill="#e7c81d" d="M128.309 309.732a115.3 115.3 0 0 0 38.174-20.229c3.055-2.443 7.36-2.529 10.474-.212l44.926 33.428a84 84 0 0 0 7.951-3.345l-48.443-36.043c-5.821-4.332-13.858-4.177-19.549.372-15.457 12.371-33.687 19.937-52.607 22.597 5.418 2.9 16.03 8.158 29.564 12.798 9.726-3.602 19.098-8.312 27.816-14.291a2.474 2.474 0 0 1 3.442.64 2.465 2.465 0 0 1-.644 3.44c-7.332 5.029-15.118 9.185-23.17 12.597a179 179 0 0 0 11.211 2.96c4.391-2.19 8.707-4.549 12.864-7.234a2.47 2.47 0 0 1 2.82.093l14.628 10.884c3.897.032 7.823-.129 11.751-.516l-21.938-16.324a2.473 2.473 0 1 1 2.955-3.969l26.007 19.35a92 92 0 0 0 9.553-2.149l-42.091-31.319c-1.31-.976-3.132-.929-4.426.108a120.2 120.2 0 0 1-39.81 21.092 2.47 2.47 0 0 1-3.094-1.63 2.464 2.464 0 0 1 1.636-3.098"/><path fill="#e7c81d" d="M170.643 256.052c-7.332 9.854-16.319 18.071-26.708 24.426a2.473 2.473 0 0 1-3.402-.823 2.48 2.48 0 0 1 .823-3.401c9.845-6.022 18.364-13.811 25.317-23.155 12.35-16.6 18.51-36.281 17.819-56.913a2.467 2.467 0 0 1 2.388-2.559 2.475 2.475 0 0 1 2.557 2.391c.732 21.768-5.766 42.526-18.794 60.034m51.952 35.571a2.473 2.473 0 0 1 .508 3.461 2.47 2.47 0 0 1-3.463.508l-43.853-32.628a2.475 2.475 0 0 1 2.954-3.97zm-31.796-46.395a2.474 2.474 0 0 1 2.726 2.194 16.01 16.01 0 0 0 6.335 11.086l55.136 41.024a105 105 0 0 0 4.427-5.964l-55.128-41.018c-3.111-2.314-4.268-6.468-2.81-10.098 6.527-16.172 9.142-33.277 8.154-50.097a141 141 0 0 0-7.636-1.665c1.198 15.104-.678 30.498-5.923 45.105-.453 1.305-1.881 1.953-3.165 1.493a2.47 2.47 0 0 1-1.491-3.165c5.149-14.344 6.912-29.484 5.557-44.297-6.218-.968-13.336-1.691-21.325-1.94 2.943 21.212-2.425 42.916-15.44 60.408-17.771 23.884-47.208 36.318-76.822 32.45-6.26-.82-12.05-2.264-17.606-4.32a184 184 0 0 0 14.341 11.843c16.36 2.576 33.308.779 48.926-5.739a2.477 2.477 0 0 1 1.909 4.572c-13.512 5.636-27.981 7.991-42.27 7.175 4.149 2.741 8.49 5.376 13.037 7.887 20.474-1.506 40.417-9.038 57.02-22.323 7.444-5.957 17.966-6.155 25.594-.479l50.354 37.466a83 83 0 0 0 7.265-4.624l-12.395-9.222a2.474 2.474 0 0 1 2.954-3.97l13.526 10.064c.47-.38.943-.75 1.41-1.144 0 0 1.758-1.652 4.35-4.598l-54.904-40.852a20.97 20.97 0 0 1-8.3-14.522 2.475 2.475 0 0 1 2.194-2.73M76.017 185.631a2.47 2.47 0 0 1-2.623.915c-21.214-5.683-42.886-5.085-62.92.929a234 234 0 0 0 2.403 7.183c26.026-7.743 54.74-5.745 80.482 7.544-.124-.065.049-.037.293-.004 2.292.3 4.16-1.949 3.39-4.163a5 5 0 0 0-.23-.586 108.5 108.5 0 0 1-15.275-20.078 255 255 0 0 1-26.977-10.625c.05.136.09.276.142.412a2.477 2.477 0 0 1-2.486 3.344 127 127 0 0 0-36.867 2.811 2.476 2.476 0 0 1-1.092-4.832 132.1 132.1 0 0 1 34.53-3.127c-.187-.543-.34-1.092-.52-1.636a224 224 0 0 1-11.387-6.083c-.346.21-.727.356-1.14.378-10.787.581-21.343 2.436-31.52 5.416a241 241 0 0 0 1.73 7.768c.702.254 1.295.785 1.534 1.554a2.47 2.47 0 0 1-.381 2.211c-.048.064-.118.108-.171.168a240 240 0 0 0 2.093 7.609c20.9-6.28 43.513-6.906 65.65-.973a2.472 2.472 0 0 1 1.342 3.865M257.8 230.654a2.47 2.47 0 0 1-.959-2.423c.497-2.761.911-5.536 1.265-8.316a79 79 0 0 0-6.788-6.337c-.601 6.452-1.569 12.896-2.976 19.297l24.648 18.34a46 46 0 0 0-2.212-10.905z"/><path fill="#e7c81d" d="M215.513 245.469a2.48 2.48 0 0 1-.852-2.827c5.425-15.02 7.929-30.6 7.551-46.422a104 104 0 0 0-7.494-2.492 120.6 120.6 0 0 1-8.64 50.574c-.62 1.544-.138 3.304 1.17 4.278l54.886 40.838a89 89 0 0 0 3.674-6.526zM3.157 132.953A134 134 0 0 1 0 129.865s.01 1.377.157 3.889c.995-.283 1.998-.543 3-.801M262.368 224.853c-.14.913-.234 1.832-.389 2.743l4.545 3.381a57 57 0 0 0-4.156-6.124M63.775 270.325c6.332 2.75 12.96 4.556 20.264 5.512 27.835 3.634 55.507-8.051 72.207-30.496 12.389-16.651 17.418-37.368 14.413-57.551-2.433-.013-4.948.025-7.527.108 2.382 14.711.078 29.973-6.785 43.3-.636 1.208-2.117 1.695-3.333 1.069a2.48 2.48 0 0 1-1.068-3.337c6.466-12.556 8.58-26.965 6.209-40.817-1.691.094-3.404.204-5.153.344-.75.06-1.534.093-2.306.137 2.934 15.685-.694 31.964-10.337 44.925a57.1 57.1 0 0 1-13.563 13.043 2.476 2.476 0 0 1-3.44-.644 2.46 2.46 0 0 1 .646-3.441 52.1 52.1 0 0 0 12.386-11.911c8.966-12.048 12.243-27.24 9.308-41.805a133 133 0 0 1-7.641-.164c3.119 13.004.407 26.74-7.625 37.534-9.75 13.104-25.93 19.924-42.231 17.795-5.196-.677-9.813-2.087-14.115-4.313-13.742-7.107-28.886-8.944-43.124-6.146a201 201 0 0 0 4.25 6.822c12.094-1.776 24.448.221 35.46 5.918 5.082 2.627 10.502 4.288 16.576 5.083a53.2 53.2 0 0 0 24.937-2.737 2.477 2.477 0 0 1 1.692 4.654 58.1 58.1 0 0 1-27.276 2.991c-6.645-.868-12.6-2.696-18.201-5.591-9.364-4.846-19.787-6.762-30.091-5.718a192 192 0 0 0 5.221 7.176c7.267-.036 14.61 1.594 21.456 5.134 6.38 3.3 13.134 5.379 20.656 6.363 21.923 2.865 43.566-5.409 57.891-22.127a2.477 2.477 0 0 1 3.491-.269 2.47 2.47 0 0 1 .376 3.355q-.05.07-.106.136c-15.418 17.992-38.709 26.893-62.297 23.813-8.099-1.057-15.388-3.305-22.281-6.871a41.1 41.1 0 0 0-15.155-4.417 186 186 0 0 0 13.036 14.312c.579-1.156 1.967-1.699 3.18-1.169"/><path fill="#e7c81d" d="M87.732 213.228c1.201.621 2.572 1.017 4.315 1.241 5.64.739 11.217-1.586 14.552-6.068 3.061-4.114 3.854-9.518 2.124-14.452-.756-2.164-1.598-3.598-2.906-4.953a100 100 0 0 1-5.5-6.229 251 251 0 0 1-11.518-3.132 104.6 104.6 0 0 0 11.668 14.51c.462.471.804.978 1.252 2.26.91 2.607.506 5.432-1.079 7.563-1.728 2.323-4.65 3.527-7.625 3.14-1.436-.187-1.894-.455-2.21-.689-24.289-12.538-51.504-14.438-76.24-7.127a224 224 0 0 0 2.755 6.96c22.83-6.544 47.91-4.661 70.412 6.976M29.938 153.496a189 189 0 0 1-9.472-6.325 151 151 0 0 0-18.431 4c.35 2.32.76 4.793 1.239 7.403a143 143 0 0 1 26.664-5.078"/></g><defs><clipPath id="a"><path fill="#fff" d="M0 0h302v328H0z"/></clipPath></defs></svg>