<svg width="190" height="190" viewBox="0 0 190 190" fill="none" xmlns="http://www.w3.org/2000/svg">
<g clip-path="url(#clip0_2322_30)">
<path d="M52.0096 10.2616C67.639 2.37325 85.1838 -0.760009 102.355 0.578259C123.639 2.23634 144.371 10.7582 160.224 25.568C175.78 40.103 185.613 57.8968 188.995 78.8629C193.591 107.359 186.828 133.112 168.347 155.453C153.402 173.52 134.112 184.652 110.95 188.354C82.5001 192.896 56.73 186.136 34.3961 167.824C16.2129 152.918 5.03935 133.641 1.23982 110.498C-5.41283 69.9188 15.163 28.8487 52.0096 10.2616ZM95.4807 18.1923C52.7635 18.0287 18.2841 52.2465 18.2394 94.7291C18.1883 137.3 52.6153 171.438 95.1005 171.461C138.248 171.49 172.142 136.549 172.069 94.8412C172.151 53.1398 138.353 18.357 95.4807 18.1923ZM40.7155 58.162C48.0088 63.924 55.3085 69.688 62.6018 75.45C69.8947 81.2115 77.1366 87.0383 84.4738 92.7474C87.5218 95.1209 89.8143 96.8942 91.349 98.0637C92.3244 98.8075 93.9425 100.103 94.7547 101.121C95.3729 101.894 95.3125 102.305 95.305 103.376C95.2976 105.568 95.3125 106.335 95.32 108.044V167.468L95.305 167.449C75.3474 129.628 55.4876 92.1542 35.7457 54.7496C35.8276 54.6678 35.9098 54.5781 35.9991 54.4963C37.571 55.7157 39.1511 56.9281 40.7155 58.162ZM156.404 54.7496C136.662 92.1542 116.798 129.628 96.8397 167.449L96.8253 167.468V108.044C96.8328 106.335 96.8472 105.568 96.8397 103.376C96.8323 102.305 96.7769 101.894 97.3955 101.121C98.2073 100.103 99.8208 98.8075 100.796 98.0637C102.331 96.8942 104.627 95.1219 107.676 92.7474C115.013 87.0383 122.255 81.2115 129.548 75.45C136.841 69.688 144.141 63.924 151.434 58.162C152.999 56.9281 154.579 55.7152 156.151 54.4963C156.24 54.5781 156.322 54.6678 156.404 54.7496ZM612.048 38.742C613.161 38.7346 613.864 39.1018 614.578 39.9493C625.499 52.7664 636.456 65.5592 647.402 78.3469C647.861 78.8818 648.345 79.3888 648.954 80.0653C649.468 79.5155 649.952 79.0299 650.391 78.5174C661.417 65.6334 672.433 52.7405 683.49 39.8861C683.959 39.3441 684.812 38.833 685.49 38.8248C692.755 38.7504 700.014 38.7784 707.273 38.7858C707.508 38.7858 707.732 38.8477 708.341 38.9221C692.49 57.4571 676.794 75.7989 661.023 94.2375C664.116 97.8648 667.17 101.441 670.223 105.016C682.467 119.335 694.715 133.656 706.979 147.96C707.423 148.481 707.977 148.907 708.476 149.382V150.078C701.216 150.049 693.957 149.968 686.698 150.035C685.171 150.049 684.213 149.543 683.265 148.428C672.194 135.433 661.083 122.468 649.982 109.495C649.682 109.146 649.363 108.814 648.944 108.361C645.351 112.554 641.839 116.661 638.322 120.766C630.324 130.111 622.326 139.468 614.288 148.784C613.809 149.341 612.976 149.93 612.303 149.937C604.928 150.019 597.544 149.983 590.165 149.976C590.011 149.976 589.851 149.893 589.402 149.782C605.293 131.209 621.074 112.765 636.93 94.2375C621.179 75.8288 605.507 57.5064 589.606 38.927C590.37 38.8527 590.844 38.7712 591.328 38.7712C598.233 38.7637 605.138 38.794 612.048 38.742ZM265.944 38.5813C275.323 38.5144 284.708 38.3945 294.087 38.6398C314.767 39.175 332.819 54.6823 336.515 74.9634C337.029 77.7736 337.297 80.6765 337.319 83.5316C337.394 91.523 337.565 99.5294 337.193 107.514C336.544 121.58 330.16 132.785 318.926 141.179C311.104 147.023 302.18 149.857 292.376 149.835C287.713 149.827 283.049 149.835 278.393 149.835V149.723C272.903 149.723 267.403 150.004 261.934 149.669C246.917 148.755 235.289 141.744 226.961 129.373C221.932 121.908 219.659 113.559 219.667 104.578C219.674 97.4037 219.657 90.2288 219.672 83.0545C219.702 61.4637 236.092 42.4457 257.495 39.2337C260.282 38.8099 263.121 38.5962 265.944 38.5813ZM491.957 38.5034C520.295 38.6149 548.624 38.5472 576.964 38.5472H578.984V56.804H497.984V119.714C497.984 126.836 502.828 131.612 509.998 131.612H579.029V149.713C578.356 149.758 577.732 149.825 577.118 149.825C554.447 149.825 531.771 149.855 509.104 149.825C494.384 149.802 481.973 138.95 479.991 124.431C479.768 122.811 479.664 121.158 479.664 119.514C479.642 96.63 479.761 73.744 479.581 50.8595C479.531 43.961 484.456 38.4811 491.957 38.5034ZM366.197 38.6105C366.673 38.6125 367.303 39.3371 367.571 39.8715C372.6 49.9605 377.587 60.0664 382.578 70.1775C390.482 86.1773 398.38 102.186 406.277 118.185C406.56 118.765 406.855 119.33 407.256 120.133C408.352 117.948 409.382 115.94 410.38 113.911C422.567 89.2273 434.749 64.5352 446.966 39.8666C447.226 39.3319 447.873 38.6171 448.35 38.6154C454.779 38.5336 461.209 38.557 467.951 38.557C466.558 41.4342 465.284 44.1207 463.966 46.7749C450.348 74.2904 436.722 101.799 423.111 129.314C420.66 134.258 418.241 139.219 415.812 144.178C414.092 147.694 411.364 149.781 407.349 149.81C403.267 149.833 400.525 147.782 398.745 144.163C381.588 109.428 364.392 74.6967 347.219 39.9688C347.041 39.6123 346.923 39.2305 346.655 38.5472C353.352 38.5472 359.775 38.5213 366.197 38.6105ZM278.481 56.3414C270.226 56.0587 261.854 56.2018 254.368 58.8485C244.742 62.2614 238.053 72.9434 238.045 82.9134V106.652C238.052 107.034 238.07 107.416 238.118 107.791C239.854 121.715 251.103 131.602 265.16 131.603C274.196 131.603 283.226 131.635 292.255 131.583C294.184 131.568 296.146 131.373 298.038 130.994C308.706 128.86 318.106 119.164 318.731 108.697L318.726 108.706C319.27 99.3908 319.306 89.9915 318.785 80.6835C318.055 67.628 306.082 56.9122 292.986 56.8524C288.337 56.8379 283.427 56.5124 278.481 56.3414ZM569.909 103.268H507.034V85.265H569.909V103.268Z" fill="#212121"/>
</g>
<defs>
<clipPath id="clip0_2322_30">
<rect width="190" height="190" fill="white"/>
</clipPath>
</defs>
</svg>
