<svg width="1681" height="328" viewBox="0 0 1681 328" fill="none" xmlns="http://www.w3.org/2000/svg">
<g clip-path="url(#clip0_2320_116)">
<path d="M261.766 0L159.297 58.8343V242.459L102.761 275.225L45.8781 242.433V176.875L102.761 144.402L139.336 165.607V112.566L102.442 91.6264L0 151.125V268.821L102.787 328L205.229 268.821V85.2221L262.111 52.43L318.968 85.2221V150.488L262.111 183.572L225.218 162.18V214.955L261.766 236.029L365.218 177.194V58.8343L261.766 0Z" fill="#5E31EB"/>
<path fill-rule="evenodd" clip-rule="evenodd" d="M862.938 254.921H908.87V3.21484H862.938V254.921ZM567.654 76.0004C589.424 76.0004 607.473 84.7431 621.746 102.202C636.046 119.661 643.169 141.318 643.169 167.176C643.169 193.032 636.02 214.689 621.746 232.148C607.445 249.606 589.424 258.35 567.654 258.35C552.238 258.35 538.841 253.593 527.518 244.053C516.407 234.301 508.248 221.147 503.011 204.591V322.951H457.079V79.4019H503.011V129.733C508.22 113.177 516.407 100.129 527.518 90.6159C538.867 80.8634 552.238 76.0004 567.654 76.0004ZM550.961 216.496C563.429 216.496 573.981 211.845 582.593 202.545C591.205 193.032 595.511 181.233 595.511 167.176C595.511 153.118 591.205 141.771 582.593 132.47C573.981 122.956 563.429 118.173 550.961 118.173C537.114 118.173 525.684 122.823 516.593 132.124C507.53 141.425 502.985 153.091 502.985 167.148C502.985 181.206 507.53 193.004 516.593 202.518C525.658 211.819 537.114 216.47 550.961 216.47V216.496ZM655.37 167.176C655.37 193.032 664.328 214.689 682.243 232.148C700.159 249.606 722.513 258.35 749.28 258.35C776.046 258.35 798.401 249.606 816.316 232.148C834.231 214.689 843.189 193.032 843.189 167.176C843.189 141.318 834.231 119.661 816.316 102.202C798.401 84.7431 776.046 76.0004 749.28 76.0004C722.513 76.0004 700.159 84.7431 682.243 102.202C664.328 119.661 655.37 141.318 655.37 167.176ZM716.267 202.545C707.415 193.032 703.002 181.233 703.002 167.176C703.002 153.118 707.415 141.771 716.267 132.47C725.118 122.956 736.123 118.173 749.28 118.173C762.438 118.173 773.442 122.823 782.292 132.124C791.144 141.425 795.556 153.091 795.556 167.148C795.556 181.206 791.144 193.004 782.292 202.518C773.442 211.819 762.438 216.47 749.28 216.47C736.123 216.47 725.118 211.819 716.267 202.518V202.545ZM1333.2 232.148C1315.29 214.689 1306.33 193.032 1306.33 167.176C1306.33 141.318 1315.29 119.661 1333.2 102.202C1351.12 84.7431 1373.47 76.0004 1400.24 76.0004C1427 76.0004 1449.35 84.7431 1467.27 102.202C1485.2 119.661 1494.15 141.318 1494.15 167.176C1494.15 193.032 1485.2 214.689 1467.27 232.148C1449.35 249.606 1427 258.35 1400.24 258.35C1373.47 258.35 1351.14 249.606 1333.2 232.148ZM1353.94 167.176C1353.94 181.233 1358.35 193.032 1367.2 202.545C1376.05 211.845 1387.06 216.496 1400.21 216.496C1413.37 216.496 1424.38 211.845 1433.22 202.545C1442.08 193.032 1446.48 181.233 1446.48 167.176C1446.48 153.118 1442.08 141.425 1433.22 132.151C1424.38 122.85 1413.37 118.2 1400.21 118.2C1387.06 118.2 1376.05 122.956 1367.2 132.496C1358.35 141.797 1353.94 153.357 1353.94 167.202V167.176ZM1616.39 76.0004C1635.9 76.0004 1651.56 82.8032 1663.33 96.4091C1675.35 110.015 1681.35 127.368 1681.35 148.44V254.895H1635.42V156.599C1635.42 145.252 1631.81 135.951 1624.52 128.696C1617.26 121.442 1608.2 117.801 1597.31 117.801C1585.06 117.801 1575.09 121.442 1567.38 128.696C1559.67 135.951 1555.82 145.252 1555.82 156.599V254.895H1509.88V79.4019H1555.82V124.312C1560.35 109.35 1567.96 97.5518 1578.62 88.9418C1589.51 80.3319 1602.09 76.0269 1616.39 76.0269V76.0004ZM1019.21 208.125L1066.15 79.5612H1112.77L1016.15 323.11H969.527L994.034 261.193L922.239 79.5612H971.919L1019.21 208.125ZM1243.39 79.4019V123.381C1233.82 94.6818 1210.19 79.4019 1178.74 79.4019C1131.27 79.4019 1103.2 120.857 1103.2 164.438C1103.2 208.018 1131.06 252.875 1178.74 252.875C1210.19 252.875 1233.82 230.208 1243.39 201.508V235.177C1243.39 249.474 1238.74 261.246 1229.43 270.548C1220.13 279.848 1208.8 284.498 1195.41 284.498C1177.25 284.498 1163.78 275.436 1154.93 257.287L1113.75 279.051C1121.46 293.348 1132.47 304.774 1146.77 313.41C1161.07 322.02 1177.28 326.325 1195.41 326.325C1222.18 326.325 1244.53 317.609 1262.44 300.124C1280.36 282.664 1289.32 261.007 1289.32 235.151V79.4019H1243.39ZM1230.12 197.788C1221.27 206.637 1210.16 211.048 1196.79 211.048C1183.42 211.048 1172.97 206.637 1164.12 197.788C1155.27 188.727 1150.86 177.618 1150.86 164.464C1150.86 151.31 1155.27 140.308 1164.12 131.46C1172.97 122.611 1183.85 118.2 1196.79 118.2C1209.74 118.2 1221.3 122.611 1230.12 131.46C1238.97 140.069 1243.39 151.071 1243.39 164.464C1243.39 177.858 1238.97 188.966 1230.12 197.788Z" fill="#5E31EB"/>
</g>
<defs>
<clipPath id="clip0_2320_116">
<rect width="1681" height="328" fill="white"/>
</clipPath>
</defs>
</svg>
