<?xml version="1.0" encoding="UTF-8"?> <svg xmlns="http://www.w3.org/2000/svg" xmlns:xlink="http://www.w3.org/1999/xlink" viewBox="0 0 3000 2182"> <defs> <style> .cls-1 { mask: url(#mask); } .cls-2 { fill: url(#linear-gradient-4); } .cls-2, .cls-3, .cls-4 { fill-rule: evenodd; } .cls-5, .cls-4 { fill: #0a0033; } .cls-6 { fill: #ea00c5; } .cls-7 { fill: url(#linear-gradient-5); } .cls-8 { fill: url(#linear-gradient-6); } .cls-9 { fill: url(#linear-gradient-3); } .cls-10 { fill: url(#linear-gradient-2); } .cls-11 { fill: url(#linear-gradient); } .cls-12 { isolation: isolate; } .cls-13 { mix-blend-mode: multiply; } .cls-3 { fill: #c55fa0; } </style> <linearGradient id="linear-gradient" x1="2035.07" y1="2120.41" x2="1323.27" y2="859.87" gradientTransform="translate(0 2182) scale(1 -1)" gradientUnits="userSpaceOnUse"> <stop offset="0" stop-color="#ea00c5"/> <stop offset="1" stop-color="#36004f"/> </linearGradient> <linearGradient id="linear-gradient-2" x1="1517.18" y1="2185.1" x2="1689.81" y2="1227.15" gradientTransform="translate(0 2182) scale(1 -1)" gradientUnits="userSpaceOnUse"> <stop offset=".2" stop-color="#ea00c5"/> <stop offset=".31" stop-color="#a9009b"/> <stop offset=".39" stop-color="#0a0033"/> </linearGradient> <linearGradient id="linear-gradient-3" x1="2023.24" y1="898.51" x2="1759.82" y2="956.87" gradientTransform="translate(0 2182) scale(1 -1)" gradientUnits="userSpaceOnUse"> <stop offset="0" stop-color="#fff" stop-opacity="0"/> <stop offset=".67" stop-color="#0a0033"/> </linearGradient> <linearGradient id="linear-gradient-4" x1="1645.33" y1="1338.79" x2="1411.5" y2="756.86" gradientTransform="translate(0 2182) scale(1 -1)" gradientUnits="userSpaceOnUse"> <stop offset="0" stop-color="#ee04c9"/> <stop offset=".44" stop-color="#ec88dc"/> <stop offset="1" stop-color="#ececec"/> </linearGradient> <mask id="mask" x="1252.92" y="211.96" width="925.65" height="1278.4" maskUnits="userSpaceOnUse"> <g id="mask0_164_1454" data-name="mask0 164 1454"> <path class="cls-3" d="M1715.26,1490.36c-418.31-550.09-502.66-724.03-447.03-941.63,46.28-181.01,198.31-336.78,449.21-336.78s418.95,164.8,454.3,375.32c23.72,141.26-11.87,308.07-145.93,416.22-33.69,27.18-71.13,48.35-107.04,68.67-83.93,47.45-159.55,90.21-159.55,193.94,0,34.42,15.34,56.42,32.05,80.38,8.43,12.09,17.21,24.68,24.54,39.62-23.48,22.7-41.33,42.01-57.72,59.76-14.45,15.63-27.77,30.05-42.83,44.49ZM1607.35,404.48c-141.73,58.5-209.2,220.82-150.7,362.55l4.94,11.96c58.5,141.73,220.81,209.2,362.54,150.7,141.73-58.5,209.21-220.82,150.71-362.55l-4.94-11.96c-58.5-141.73-220.82-209.2-362.55-150.7Z"/> </g> </mask> <linearGradient id="linear-gradient-5" x1="1815.77" y1="1371.19" x2="1808.35" y2="1380.31" gradientUnits="userSpaceOnUse"> <stop offset="0" stop-color="#ef05ca"/> <stop offset="1" stop-color="#5f006b"/> </linearGradient> <linearGradient id="linear-gradient-6" x1="1875.16" y1="776.97" x2="1569.9" y2="1151.93" xlink:href="#linear-gradient-5"/> </defs> <g class="cls-12"> <g id="Layer_1" data-name="Layer 1"> <path class="cls-11" d="M1847.5,48.46C1938.18,18.44,2032.14.44,2123.12.01c1109.08-5.13,1243.81,1363.9-46.09,1361.24-301.42-.62-746.69-123.61-888.38-164.57-375.53-108.54-764.95-190.53-1170.55-14.43-14.32,6.22-25.48-11.55-12.09-19.58,199.65-119.77,506.62-215.02,979.6-139.43,123.08,19.66,232.83,44.4,341.89,68.98,202.45,45.63,402.48,90.72,680.8,101.8,985.71,39.24,1032.88-948.48,159.89-1042.93,0,0-11.41-.84-40.88-1.98,0,0-49.22,90.5-132.63,95.15-62.9,3.5-87.26-35.21-90.91-67.02-6.59-57.33-29.05-116.1-56.27-128.77Z"/> <path class="cls-10" d="M1792.46,68.3c-210.39,81.97-395.23,224.69-471.66,354.87l281.4-93.37c10.64-29.48,106.19-97.8,106.19-97.8,0,0,156.7-61.41,84.07-163.7Z"/> <g class="cls-13"> <path class="cls-9" d="M1782,1176.39c70.08,8.23,144.84,14.38,226.3,17.63,28.17,1.12,55.57,1.4,82.21.89,7.93,18.14,12.3,37.95,12.3,58.7,0,41.52-17.49,79.29-46.07,107.42-83.97-1.62-177.93-12.03-272.76-27.06-15.22-23.53-23.96-51.01-23.96-80.36s7.98-54.41,21.98-77.22Z"/> </g> <path class="cls-4" d="M1842.65,1579.38c0-39.06-32.71-72.7-63.25-90.2,0,17.42,2.68,32.55-33.59,61.8-15.76,12.72-19.95,32.34-17.16,48.95,4.16,24.76,23.92,44.14,53.43,44.14s60.57-19.29,60.57-64.69Z"/> <path class="cls-6" d="M2603.36,2181.87c-18.03,0-35.61-3.38-52.74-10.14-8.56-2.7-15.77-6.08-21.63-10.14l23.66-57.47h6.76c4.51,4.51,8.11,7.44,10.82,8.79,8.56,5.41,17.35,8.11,26.37,8.11,10.81,0,20.73-4.05,29.75-12.17,9.01-8.11,15.55-19.83,19.6-35.15l9.47-33.81c-15.34,0-28.94-9.83-33.75-24.4l-103.5-313.65h88.57l67.61,219.74c1.8,7.21,3.15,15.09,4.05,23.66l1.36,13.52h2.7l1.35-13.52c.9-8.57,2.26-16.45,4.06-23.66l57.47-219.74h94.65l-111.55,371.86c-22.54,72.11-64.23,108.17-125.08,108.17Z"/> <path class="cls-6" d="M2314.25,2046.65c-39.67,0-70.54-9.46-92.63-28.39-21.63-19.38-32.45-44.85-32.45-76.4,0-33.81,12.17-60.17,36.51-79.11,24.79-19.38,63.33-29.07,115.61-29.07h47.33v-10.14c0-23.89-5.19-41.01-15.55-51.38-10.37-10.82-26.6-16.23-48.68-16.23-18.93,0-36.29,4.51-52.06,13.52-5.64,2.82-11.28,6.72-16.92,11.7-1.31,1.16-2.98,1.83-4.73,1.83-2.5,0-4.8-1.35-6.03-3.53l-28.44-50.56c10.82-7.21,21.41-12.85,31.78-16.9,29.3-11.27,57.02-16.91,83.16-16.91,31.55,0,58.82,5.64,81.81,16.91,22.98,10.81,40.34,25.91,52.06,45.29,12.17,19.39,18.25,41.47,18.25,66.26v216.35h-26.48c-23.74,0-43.99-17.16-47.89-40.56h-3.38c-7.66,9.91-15.33,17.8-22.99,23.66-18.93,15.77-41.69,23.66-68.28,23.66ZM2331.15,1982.42c13.97,0,27.72-6.76,41.24-20.28,12.03-12.03,16.23-29.3,16.23-46.31v-21.3h-47.33c-38.31,0-57.47,15.78-57.47,47.33,0,12.17,4.06,22.08,12.17,29.75,8.57,7.21,20.29,10.81,35.16,10.81Z"/> <path class="cls-6" d="M1871.57,1711.84c-.23-65.34,44.25-122.33,107.62-138.3,18.23-4.59,36.99-7.28,55.74-5.97,49.16,3.42,85.93,16.18,110.31,38.27,29.3,26.14,43.95,66.03,43.95,119.67s-14.65,93.52-43.95,119.67c-28.85,26.14-75.05,39.21-138.6,39.21h-40.57v155.5h-87.91c-4.69-121.56-6.17-207.1-6.59-328.05ZM2006.64,1823.54c31.1,0,53.41-7.44,66.93-22.31,13.98-15.32,20.96-40.57,20.96-75.72s-6.98-60.17-20.96-75.05c-13.52-15.32-29.1-22.99-47.73-22.99-33.01,0-59.77,26.76-59.77,59.77v136.3h40.57Z"/> <path class="cls-5" d="M1514.02,1711.23h41.69c15.42,0,29.05,10.03,33.65,24.75,4.5-6.76,14.12-15.45,24.53-21.39,24.52-13.98,44.82-19.51,69.16-19.51,40.56,0,73.24,15.1,98.03,45.3,24.79,29.75,37.19,73.25,37.19,130.49s-12.85,101.41-38.54,131.16c-25.24,29.75-59.72,44.62-103.44,44.62-18.48,0-34.93-3.38-49.36-10.14-7.21-2.7-13.29-6.08-18.25-10.14v102.57c0,12.25-4.87,23.99-13.52,32.65-8.66,8.66-20.4,13.52-32.65,13.52h-48.49v-463.88ZM1659.39,1985.8c20.28,0,36.05-8.79,47.32-26.36,11.27-17.58,16.9-47.11,16.9-88.57,0-39.22-5.4-67.61-16.22-85.19-10.37-17.58-24.12-26.37-41.24-26.37-14.88,0-29.08,6.76-42.6,20.29-4.51,5.4-9.46,12.16-14.87,20.28v165.64c4.96,4.06,9.69,7.44,14.2,10.14,10.81,6.76,22.98,10.14,36.51,10.14Z"/> <path class="cls-5" d="M983.34,1701.84h67.61l6.76,40.57h3.38c4.96-7.21,12.17-15.1,21.64-23.66,19.38-15.78,40.34-23.67,62.87-23.67,27.5,0,50.48,7.89,68.96,23.67,8.12,7.66,14.43,15.55,18.94,23.66,6.31-7.66,15.09-15.55,26.36-23.66,25.24-15.78,50.26-23.67,75.05-23.67,37.86,0,67.61,11.27,89.24,33.81,21.64,22.53,32.46,54.09,32.46,94.65v216.35h-94.66v-216.35c0-20.73-4.28-36.51-12.84-47.33-8.12-11.26-18.48-16.9-31.1-16.9s-24.34,5.64-36.51,16.9c-3.16,3.16-7.89,8.79-14.2,16.91v246.77h-94.65v-216.35c0-20.73-4.29-36.51-12.85-47.33-8.11-11.26-18.48-16.9-31.1-16.9-14.42,0-27.04,6.76-37.86,20.29-5.86,7.66-10.14,14.42-12.85,20.28v240.01h-94.65v-338.05Z"/> <path class="cls-5" d="M750.16,2046.65c-41.02,0-72.79-11.04-95.33-33.13-22.09-22.53-33.13-54.31-33.13-95.33v-216.35h94.65v216.35c0,21.19,4.51,37.19,13.52,48.01,9.01,10.82,21.41,16.22,37.18,16.22,14.87,0,29.07-6.76,42.59-20.28,4.51-5.41,9.46-12.17,14.87-20.28v-240.02h94.65v338.05h-26.48c-23.73,0-43.98-17.16-47.89-40.56h-3.38c-7.66,9.91-15.33,17.8-22.99,23.66-18.93,15.78-41.69,23.66-68.29,23.66Z"/> <path class="cls-5" d="M269.18,1711.84c-.23-65.34,44.26-122.33,107.62-138.3,18.23-4.59,36.99-7.28,55.75-5.97,49.16,3.42,85.93,16.18,110.3,38.27,29.3,26.14,43.95,66.03,43.95,119.67s-14.65,93.52-43.95,119.67c-28.85,26.14-75.05,39.21-138.6,39.21h-40.57v155.5h-87.91c-4.7-121.56-6.18-207.1-6.6-328.05ZM404.26,1823.54c31.1,0,53.41-7.44,66.93-22.31,13.97-15.32,20.96-40.57,20.96-75.72s-6.99-60.17-20.96-75.05c-13.52-15.32-29.11-22.99-47.73-22.99-33.01,0-59.77,26.76-59.77,59.77v136.3h40.57Z"/> <path class="cls-2" d="M1715.26,1490.36c-418.31-550.09-502.66-724.03-447.03-941.63,46.28-181.01,198.31-336.78,449.21-336.78s418.95,164.8,454.3,375.32c23.72,141.26-11.87,308.07-145.93,416.22-33.69,27.18-71.13,48.35-107.04,68.67-83.93,47.45-159.55,90.21-159.55,193.94,0,34.42,15.34,56.42,32.05,80.38,8.43,12.09,27.67,37.1,36.98,52.61-24.05,20.95-112.99,91.26-112.99,91.26ZM1607.35,404.48c-141.73,58.5-209.2,220.82-150.7,362.55l4.94,11.96c58.5,141.73,220.81,209.2,362.54,150.7,141.73-58.5,209.21-220.82,150.71-362.55l-4.94-11.96c-58.5-141.73-220.82-209.2-362.55-150.7Z"/> <g class="cls-1"> <g> <path class="cls-7" d="M1799.01,1357.25c8.19,11.19,18.87,25.62,26.16,36.92-1.06-1.41-2.12-2.85-3.17-4.33-7.74-10.88-15.41-21.75-22.99-32.59Z"/> <path class="cls-8" d="M2062.72,969.78c-11.36,11.76-23.66,23.03-36.91,33.72-33.69,27.18-71.13,48.35-107.04,68.67-83.93,47.45-159.55,90.21-159.55,193.94,0,26.39,9.02,45.48,20.76,63.75-139-201.39-248.67-391.06-296.25-508.06,70.79,111.9,213.8,160.15,340.4,107.9,53.25-21.98,96.02-58.61,125.56-103.3,54.72,39.12,91.11,89,113.03,143.38Z"/> </g> </g> </g> </g> </svg>