<svg width="1757" height="328" viewBox="0 0 1757 328" fill="none" xmlns="http://www.w3.org/2000/svg">
<g clip-path="url(#clip0_2320_43)">
<path d="M595.086 179.682H661.301C670.612 179.682 678.156 187.303 678.156 196.608C678.156 205.913 670.612 213.533 661.301 213.533H581.441C580.157 213.533 578.953 214.014 578.07 214.816L553.992 235.592C550.3 238.801 552.547 244.817 557.363 244.817H657.288C657.288 244.817 657.369 244.817 657.369 244.737C657.369 244.656 657.449 244.656 657.449 244.656C658.733 244.737 659.937 244.817 661.301 244.817C687.788 244.817 709.298 223.239 709.298 196.608C709.298 171.34 689.955 150.564 665.234 148.559C665.234 148.559 665.154 148.559 665.154 148.479C665.154 148.398 665.154 148.398 665.074 148.398H593.802C584.491 148.398 576.947 140.778 576.947 131.473C576.947 122.088 584.491 114.548 593.802 114.548H673.501C674.785 114.548 676.069 114.066 677.033 113.184L699.426 92.4082C702.957 89.1996 700.629 83.2637 695.894 83.2637H595.166C594.765 83.2637 594.283 83.2637 593.882 83.2637C567.396 83.2637 545.886 104.842 545.886 131.473C545.886 158.104 567.396 179.682 593.882 179.682C594.283 179.682 594.684 179.682 595.086 179.682Z" fill="black"/>
<path d="M980.581 83.1831C977.692 83.1831 975.364 85.5093 975.364 88.4773V239.603C975.364 242.49 977.692 244.897 980.581 244.897H1101.78C1103.22 244.897 1104.58 244.255 1105.63 243.212L1120.8 226.929C1123.93 223.56 1121.6 218.105 1116.94 218.105H1011.16C1008.27 218.105 1005.94 215.779 1005.94 212.811V88.4773C1005.94 85.5895 1003.62 83.1831 1000.73 83.1831H980.581Z" fill="black"/>
<path fill-rule="evenodd" clip-rule="evenodd" d="M786.509 83.1831C786.509 83.2633 786.429 83.2633 786.509 83.1831C771.019 83.905 758.578 96.3384 757.856 111.82V213.452C757.856 213.853 757.856 214.335 757.856 214.736C757.856 230.859 770.537 244.014 786.509 244.656H896.467C912.359 243.934 925.12 230.779 925.12 214.736C925.12 214.335 925.12 213.853 925.12 213.452V111.9C924.478 96.4186 912.038 83.905 896.547 83.2633H786.509V83.1831ZM806.976 111.9C797.264 112.301 789.479 120.162 789.077 129.948V193.88C789.077 194.121 789.077 194.441 789.077 194.682C789.077 204.789 797.023 213.132 806.976 213.533H875.92C885.873 213.132 893.819 204.789 893.819 194.682C893.819 194.441 893.819 194.121 893.819 193.88V129.948C893.417 120.162 885.632 112.381 875.92 111.9H806.976Z" fill="black"/>
<path fill-rule="evenodd" clip-rule="evenodd" d="M1296.97 239.603C1296.97 242.49 1299.3 244.897 1302.19 244.897H1322.74C1325.62 244.897 1327.95 242.571 1327.95 239.603V114.547C1327.95 114.146 1327.95 113.665 1327.95 113.264C1327.95 97.1407 1315.35 83.9855 1299.62 83.3438H1194.08C1193.67 83.3438 1193.19 83.3438 1192.79 83.3438C1176.42 83.3438 1163.18 96.7396 1163.18 113.344C1163.18 113.745 1163.18 114.227 1163.18 114.628V239.683C1163.18 242.571 1165.5 244.977 1168.39 244.977H1188.94C1191.83 244.977 1194.16 242.651 1194.16 239.683V187.623C1194.16 184.736 1196.48 182.329 1199.37 182.329H1291.99C1294.88 182.329 1297.21 184.655 1297.21 187.623V239.603H1296.97ZM1193.92 153.532V127.542C1193.92 117.435 1202.02 109.253 1211.97 109.253H1278.91C1288.86 109.253 1296.97 117.435 1296.97 127.542V153.532C1296.97 156.42 1294.64 158.826 1291.75 158.826H1199.13C1196.24 158.826 1193.92 156.5 1193.92 153.532Z" fill="black"/>
<path fill-rule="evenodd" clip-rule="evenodd" d="M1730.78 244.897C1727.89 244.897 1725.57 242.571 1725.57 239.603V187.543C1725.57 184.656 1723.24 182.249 1720.35 182.249H1626.68C1623.8 182.249 1621.47 184.575 1621.47 187.543V239.603C1621.47 242.491 1619.14 244.897 1616.25 244.897H1595.54C1592.65 244.897 1590.33 242.571 1590.33 239.603V114.548C1590.33 114.146 1590.33 113.665 1590.33 113.264C1590.33 96.7398 1603.73 83.2637 1620.26 83.2637C1620.67 83.2637 1621.15 83.2637 1621.55 83.2637H1728.3C1744.19 83.9856 1756.95 97.1409 1756.95 113.184C1756.95 113.585 1756.95 114.066 1756.95 114.467V239.523C1756.95 242.41 1754.62 244.817 1751.73 244.817H1730.78V244.897ZM1621.39 127.542V153.532C1621.39 156.42 1623.72 158.826 1626.6 158.826H1720.27C1723.16 158.826 1725.49 156.5 1725.49 153.532V127.542C1725.49 117.435 1717.3 109.253 1707.27 109.253H1639.61C1629.57 109.253 1621.39 117.435 1621.39 127.542Z" fill="black"/>
<path d="M1405.24 83.1831C1406.77 83.1831 1408.21 83.8248 1409.18 85.028L1501.32 194.843C1504.45 198.532 1510.47 196.286 1510.47 191.393V88.4773C1510.47 85.5895 1512.79 83.1831 1515.68 83.1831H1536.23C1539.12 83.1831 1541.45 85.5093 1541.45 88.4773V239.603C1541.45 242.49 1539.12 244.897 1536.23 244.897H1510.71C1510.63 244.897 1510.55 244.816 1510.55 244.736C1510.55 244.656 1510.55 244.656 1510.47 244.576L1416.72 135.564C1413.59 131.874 1407.57 134.2 1407.57 139.013V239.683C1407.57 242.57 1405.24 244.977 1402.35 244.977H1381.65C1378.76 244.977 1376.43 242.651 1376.43 239.683V88.4773C1376.43 85.5895 1378.76 83.1831 1381.65 83.1831H1405.24Z" fill="black"/>
<path d="M68.0096 250.432C70.5779 247.865 74.0292 246.421 77.6409 246.421H411.929C418.029 246.421 421.079 253.801 416.745 258.053L350.69 323.989C348.122 326.556 344.67 328 341.059 328H6.85041C0.750549 328 -2.29938 320.62 2.03473 316.369L68.0096 250.432Z" fill="url(#paint0_linear_2320_43)"/>
<path d="M68.0096 4.01075C70.5779 1.44387 74.0292 0 77.6409 0H411.929C418.029 0 421.079 7.37979 416.745 11.6312L350.69 77.568C348.122 80.1349 344.67 81.5788 341.059 81.5788H6.85041C0.750549 81.5788 -2.29938 74.199 2.03473 69.9476L68.0096 4.01075Z" fill="url(#paint1_linear_2320_43)"/>
<path d="M350.69 126.419C348.122 123.853 344.67 122.409 341.059 122.409H6.85041C0.750549 122.409 -2.29938 129.788 2.03473 134.04L68.0898 199.977C70.6582 202.544 74.1094 203.987 77.7212 203.987H412.01C418.11 203.987 421.159 196.608 416.825 192.356L350.69 126.419Z" fill="url(#paint2_linear_2320_43)"/>
</g>
<defs>
<linearGradient id="paint0_linear_2320_43" x1="380.012" y1="-39.3987" x2="148.887" y2="403.553" gradientUnits="userSpaceOnUse">
<stop stop-color="#00FFA3"/>
<stop offset="1" stop-color="#DC1FFF"/>
</linearGradient>
<linearGradient id="paint1_linear_2320_43" x1="278.86" y1="-92.1786" x2="47.7356" y2="350.773" gradientUnits="userSpaceOnUse">
<stop stop-color="#00FFA3"/>
<stop offset="1" stop-color="#DC1FFF"/>
</linearGradient>
<linearGradient id="paint2_linear_2320_43" x1="329.114" y1="-65.9565" x2="97.9896" y2="376.995" gradientUnits="userSpaceOnUse">
<stop stop-color="#00FFA3"/>
<stop offset="1" stop-color="#DC1FFF"/>
</linearGradient>
<clipPath id="clip0_2320_43">
<rect width="1757" height="328" fill="white"/>
</clipPath>
</defs>
</svg>
