<?xml version="1.0" encoding="utf-8"?>
<!-- Generator: Adobe Illustrator 27.5.0, SVG Export Plug-In . SVG Version: 6.00 Build 0)  -->
<svg version="1.1" id="Layer_1" xmlns="http://www.w3.org/2000/svg" xmlns:xlink="http://www.w3.org/1999/xlink" x="0px" y="0px"
	 width="65px" height="57px" viewBox="0 0 65 57" enable-background="new 0 0 65 57" xml:space="preserve">
<g>
	<g>
		<polygon fill="#0058B0" points="48.73,0.39 16.28,0.39 0.05,28.5 16.28,56.61 48.73,56.61 64.95,28.5 		"/>
		<g>
			<g>
				<path fill="#0058B0" d="M32.5,27.89c-0.54,0-1.07-0.18-1.51-0.54l-5.6-4.67h-7.45c-0.44,0-0.87-0.13-1.25-0.36l-7.56-4.72
					c-0.22-0.14-0.42-0.31-0.58-0.51c0,0-4.63-7.39-3.63-8.21c1.01-0.81,7.03,4.95,7.03,4.95l6.65,4.16h7.63
					c0.55,0,1.08,0.19,1.51,0.54l4.75,3.96l4.75-3.96c0.42-0.35,0.95-0.54,1.51-0.54h7.63l6.65-4.17c0,0,6.02-5.76,7.03-4.95
					c1.01,0.82-3.63,8.21-3.63,8.21c-0.16,0.2-0.36,0.37-0.58,0.51l-7.56,4.72c-0.37,0.24-0.81,0.36-1.25,0.36h-7.45l-5.6,4.67
					C33.57,27.71,33.04,27.89,32.5,27.89z"/>
			</g>
		</g>
		<g>
			<g>
				<path fill="#FFFFFF" d="M32.5,27.03l-6.67-5.56h-8.22l-8-5c0,0-4.42-6.27-3.92-6.67c0.49-0.4,5.47,4.92,5.47,4.92l7.11,4.45h8.4
					l5.83,4.87l5.83-4.87h8.4l7.11-4.45c0,0,4.97-5.32,5.47-4.92c0.49,0.4-3.92,6.67-3.92,6.67l-8,5h-8.21L32.5,27.03z"/>
			</g>
			<g>
				<path fill="#FFFFFF" d="M33.54,36.52h-2.07l-2.95-6.17l-6.15-3.77l-3.64,3.64c-0.45,0.45-1.18,0.45-1.62,0
					c-0.45-0.45-0.45-1.18,0-1.62l4.28-4.28l1.41-0.17L30,28.58l0.43,0.48l2.07,4.32l2.07-4.32l0.43-0.48l7.21-4.42l1.41,0.17
					l4.28,4.28c0.45,0.45,0.45,1.18,0,1.62c-0.45,0.45-1.18,0.45-1.62,0l-3.64-3.64l-6.15,3.77L33.54,36.52z"/>
			</g>
			<g>
				<path fill="#FFFFFF" d="M34.83,47.45h-4.66l-1.1-0.81l-3.01-9.79l-4.35-4.21c-0.45-0.44-0.46-1.17-0.02-1.62
					c0.44-0.46,1.17-0.46,1.62-0.02l4.56,4.42l0.3,0.49l2.85,9.26h2.97l2.85-9.26l0.3-0.49L41.68,31c0.45-0.44,1.18-0.43,1.62,0.02
					s0.43,1.18-0.02,1.62l-4.35,4.21l-3.01,9.79L34.83,47.45z"/>
			</g>
		</g>
	</g>
</g>
</svg>
