<svg width="42" height="32" viewBox="0 0 42 32" fill="none" xmlns="http://www.w3.org/2000/svg">
<g clip-path="url(#clip0_2357_15)">
<path d="M12.7543 0.716797L18.8701 6.877L12.3128 13.4818C9.21099 16.6061 9.21098 21.6716 12.3128 24.7959C15.2174 27.7216 19.812 27.9076 22.9315 25.354L21.0371 27.2622C16.4626 31.8698 9.0459 31.8698 4.47143 27.2622L3.71845 26.5037C-0.856019 21.8961 -0.856019 14.4257 3.71845 9.81806L12.7543 0.716797Z" fill="#161616"/>
<path d="M29.2597 31.2858L23.1438 25.1256L29.7011 18.5207C32.803 15.3964 32.803 10.3309 29.7011 7.20659C26.7965 4.28095 22.202 4.09492 19.0825 6.64853L20.9769 4.74038C25.5514 0.132765 32.9681 0.132765 37.5425 4.74038L38.2955 5.49882C42.87 10.1065 42.87 17.5769 38.2955 22.1845L29.2597 31.2858Z" fill="#161616"/>
</g>
<defs>
<clipPath id="clip0_2357_15">
<rect width="42" height="32" fill="white"/>
</clipPath>
</defs>
</svg>
