<?xml version="1.0" encoding="UTF-8"?> <svg xmlns="http://www.w3.org/2000/svg" width="123" height="32" viewBox="0 0 123 32" fill="none"><path d="M65.9363 29.537H69.1586V7.27742H65.9363V20.2473C65.9363 24.2741 63.3301 26.6152 59.16 26.6152C54.6583 26.6152 53.2841 23.4781 53.2841 20.2473V7.27742H50.0144V20.9965C50.0144 25.6319 51.9573 29.565 58.0228 29.565C61.9559 29.565 64.9412 27.458 65.889 23.244H65.9363V29.537Z" fill="#161616"></path><path d="M75.1383 22.6821C75.1383 26.7089 77.1285 29.565 81.5355 29.565C83.3835 29.565 84.6156 29.3309 86.0846 28.8627L85.6107 25.9129C84.3313 26.2875 83.3362 26.4747 82.1041 26.4747C79.4504 26.4747 78.4079 25.1169 78.4079 22.4012V10.1336H85.8477V7.27742H78.4079V0.347656H75.1383V7.27742H71.5843V10.1336H75.1383V22.6821Z" fill="#161616"></path><path d="M92.6906 3.5316V0.347656H88.7101V3.5316H92.6906ZM92.3589 29.537V7.27742H89.0892V29.537H92.3589Z" fill="#161616"></path><path d="M100.491 0.347656H97.2216V29.537H100.491V0.347656Z" fill="#161616"></path><path d="M111.918 26.7557C108.459 26.7557 107.226 24.9296 107.226 23.1503C107.226 20.856 108.932 19.6386 112.013 19.6386H119.31V21.0433C119.31 24.3209 116.514 26.7557 111.918 26.7557ZM119.31 29.537H122.532V15.4714C122.532 9.8995 119.926 6.80919 114.003 6.80919C108.601 6.80919 105.473 9.52491 104.715 14.7691L107.843 15.2841C108.506 11.2574 110.401 9.61856 113.908 9.61856C117.888 9.61856 119.31 11.7256 119.31 15.565V17.0166H111.681C106.516 17.0166 104.004 19.8259 104.004 23.4313C104.004 27.5048 106.753 29.5182 111.207 29.5182C115.093 29.5182 118.22 27.5517 119.263 23.4313H119.31V29.537Z" fill="#161616"></path><path d="M12.7544 0.716797L18.8702 6.877L12.3129 13.4818C9.21111 16.6061 9.2111 21.6716 12.3129 24.7959C15.2175 27.7216 19.8121 27.9076 22.9316 25.354L21.0372 27.2622C16.4627 31.8698 9.04602 31.8698 4.47155 27.2622L3.71857 26.5037C-0.855897 21.8961 -0.855897 14.4257 3.71857 9.81806L12.7544 0.716797Z" fill="#161616"></path><path d="M29.2599 31.2858L23.144 25.1256L29.7013 18.5207C32.8032 15.3964 32.8032 10.3309 29.7013 7.20662C26.7967 4.28098 22.2022 4.09495 19.0827 6.64856L20.9771 4.74041C25.5516 0.132798 32.9683 0.132798 37.5427 4.74041L38.2957 5.49885C42.8702 10.1065 42.8702 17.5769 38.2957 22.1845L29.2599 31.2858Z" fill="#161616"></path></svg> 