<svg width="276" height="276" viewBox="0 0 276 276" fill="none" xmlns="http://www.w3.org/2000/svg">
<rect width="276" height="276" rx="138" fill="url(#paint0_linear_1126_32832)"/>
<g clip-path="url(#clip0_1126_32832)">
<path d="M184.789 198.955C185.018 199.416 185.047 199.778 184.594 200.137C169.991 208.148 151.987 209.221 136.338 203.636C130.274 201.355 123.754 200.338 117.304 200.986C111.135 201.736 103.808 203.007 97.7564 203.874C96.9014 204.008 96.4646 203.938 96.0755 203.194C94.7069 201.049 89.9636 193.376 87.8936 190.087C87.4948 189.445 87.3639 189.239 87.3703 189.131C87.3736 189.083 87.3926 189.045 87.4277 188.997C88.1166 187.739 95.6415 177.133 105.39 163.436H134.769C129.537 170.871 125.055 177.238 122.032 181.543C122.006 181.587 122.016 181.619 122.074 181.645C122.124 181.664 122.214 181.683 122.351 181.696C122.775 181.727 123.911 181.791 124.578 181.819C131.611 182.093 138.409 184.075 145.031 186.398C155.379 189.553 166.352 188.037 175.963 183.354L175.998 183.348C176.426 183.268 176.675 183.535 176.869 183.885C178.247 186.49 183.392 196.279 184.79 198.954L184.789 198.955Z" fill="white"/>
<mask id="mask0_1126_32832" style="mask-type:luminance" maskUnits="userSpaceOnUse" x="87" y="163" width="98" height="45">
<path d="M184.789 198.955C185.018 199.416 185.047 199.778 184.594 200.137C169.991 208.148 151.987 209.221 136.338 203.636C130.274 201.355 123.754 200.338 117.304 200.986C111.135 201.736 103.808 203.007 97.7564 203.874C96.9014 204.008 96.4646 203.938 96.0755 203.194C94.7069 201.049 89.9636 193.376 87.8936 190.087C87.4948 189.445 87.3639 189.239 87.3703 189.131C87.3736 189.083 87.3926 189.045 87.4277 188.997C88.1166 187.739 95.6415 177.133 105.39 163.436H134.769C129.537 170.871 125.055 177.238 122.032 181.543C122.006 181.587 122.016 181.619 122.074 181.645C122.124 181.664 122.214 181.683 122.351 181.696C122.775 181.727 123.911 181.791 124.578 181.819C131.611 182.093 138.409 184.075 145.031 186.398C155.379 189.553 166.352 188.037 175.963 183.354L175.998 183.348C176.426 183.268 176.675 183.535 176.869 183.885C178.247 186.49 183.392 196.279 184.79 198.954L184.789 198.955Z" fill="white"/>
</mask>
<g mask="url(#mask0_1126_32832)">
<path d="M188.647 68.2822H87.2183V207.852H188.647V68.2822Z" fill="white"/>
</g>
<path d="M143.719 150.728H114.433C120.408 142.323 126.657 133.525 132.36 125.442H161.519C155.672 133.745 149.509 142.498 143.719 150.728Z" fill="white"/>
<mask id="mask1_1126_32832" style="mask-type:luminance" maskUnits="userSpaceOnUse" x="114" y="125" width="48" height="26">
<path d="M143.719 150.728H114.433C120.408 142.323 126.657 133.525 132.36 125.442H161.519C155.672 133.745 149.509 142.498 143.719 150.728Z" fill="white"/>
</mask>
<g mask="url(#mask1_1126_32832)">
<path d="M188.647 68.2822H87.2183V207.852H188.647V68.2822Z" fill="white"/>
</g>
<path d="M188.63 86.8709C188.63 86.9183 188.607 86.9534 188.579 86.9981C187.695 88.2626 180.234 98.8591 170.467 112.731H141.283C148.412 102.503 153.362 95.1764 153.509 94.2961C148.319 94.1118 143.04 93.3809 138.029 91.9034C133.183 90.3876 128.347 88.4594 123.208 88.1193C115.76 87.417 108.155 88.8055 101.371 92.1227C100.675 92.361 100.053 92.9044 99.463 92.52C97.6576 89.6447 92.7418 79.9281 91.0863 76.7192C90.9494 76.2901 91.2233 75.9694 91.5647 75.7468C92.1773 75.3338 93.3381 74.8062 94.3653 74.3232C107.358 68.3533 122.331 67.2445 136.045 71.2064C138.916 72.0069 141.678 73.1858 144.543 73.907C149.19 75.1048 154.039 75.4767 158.817 75.0034C162.913 74.549 167.363 73.7421 171.43 73.1637C173.019 72.919 175.944 72.4742 177.615 72.2199C177.762 72.1977 177.902 72.1756 178.03 72.1563C178.968 72.0258 179.312 72.0166 179.612 72.3692C181.242 74.714 186.751 83.8615 188.25 86.1459C188.54 86.6128 188.633 86.775 188.63 86.8704V86.8709Z" fill="white"/>
<mask id="mask2_1126_32832" style="mask-type:luminance" maskUnits="userSpaceOnUse" x="91" y="68" width="98" height="45">
<path d="M188.63 86.8709C188.63 86.9183 188.607 86.9534 188.579 86.9981C187.695 88.2626 180.234 98.8591 170.467 112.731H141.283C148.412 102.503 153.362 95.1764 153.509 94.2961C148.319 94.1118 143.04 93.3809 138.029 91.9034C133.183 90.3876 128.347 88.4594 123.208 88.1193C115.76 87.417 108.155 88.8055 101.371 92.1227C100.675 92.361 100.053 92.9044 99.463 92.52C97.6576 89.6447 92.7418 79.9281 91.0863 76.7192C90.9494 76.2901 91.2233 75.9694 91.5647 75.7468C92.1773 75.3338 93.3381 74.8062 94.3653 74.3232C107.358 68.3533 122.331 67.2445 136.045 71.2064C138.916 72.0069 141.678 73.1858 144.543 73.907C149.19 75.1048 154.039 75.4767 158.817 75.0034C162.913 74.549 167.363 73.7421 171.43 73.1637C173.019 72.919 175.944 72.4742 177.615 72.2199C177.762 72.1977 177.902 72.1756 178.03 72.1563C178.968 72.0258 179.312 72.0166 179.612 72.3692C181.242 74.714 186.751 83.8615 188.25 86.1459C188.54 86.6128 188.633 86.775 188.63 86.8704V86.8709Z" fill="white"/>
</mask>
<g mask="url(#mask2_1126_32832)">
<path d="M188.647 68.2783H87.2183V207.848H188.647V68.2783Z" fill="white"/>
</g>
</g>
<defs>
<linearGradient id="paint0_linear_1126_32832" x1="138" y1="0" x2="138" y2="341.412" gradientUnits="userSpaceOnUse">
<stop stop-color="#3893FF"/>
<stop offset="1" stop-color="#0052B4"/>
</linearGradient>
<clipPath id="clip0_1126_32832">
<rect width="101.26" height="138.256" fill="white" transform="translate(87.3701 68.8721)"/>
</clipPath>
</defs>
</svg>
