<svg width="363" height="386" viewBox="0 0 363 386" fill="none" xmlns="http://www.w3.org/2000/svg">
<path fill-rule="evenodd" clip-rule="evenodd" d="M115.751 67.5245L227.141 50.3782L230.511 72.2698L251.759 68.9991L258.498 112.782L281.034 109.313L301.55 242.595L279.014 246.064L285.853 290.491L244.001 296.933L264.605 293.762L267.975 315.653L222.904 322.591L226.274 344.483L160.599 354.592L157.229 332.701L134.694 336.169L131.369 314.572L95.0076 320.169L88.1236 275.448L81.1147 276.527L60.5986 143.245L67.6075 142.166L60.9724 99.062L119.226 90.095L119.121 89.4161L118.923 88.1283L115.751 67.5245Z" fill="#017849"/>
<path fill-rule="evenodd" clip-rule="evenodd" d="M221.492 13.6774L89.4982 33.9953L91.6786 48.1604L46.6076 55.0982L50.0765 77.6337L116.395 67.4253L112.926 44.8897L223.672 27.8426L221.492 13.6774ZM50.7203 77.5347L72.612 74.1649L76.0809 96.7004L54.1892 100.07L60.9288 143.853L38.3933 147.322L58.7921 279.841L81.6118 276.329L88.4347 320.653L110.597 317.242L114.001 339.355L157.229 332.7L160.599 354.592L226.274 344.483L222.904 322.591L267.975 315.653L264.605 293.762L285.853 290.491L279.014 246.064L301.55 242.595L281.133 109.957L326.204 103.02L346.621 235.657L323.442 239.225L330.379 284.296L308.488 287.666L315.128 330.805L271.345 337.545L273.525 351.71L229.742 358.45L228.454 358.648L140.244 372.226L138.063 358.061L94.9241 364.701L91.5619 342.859L68.6531 346.385L65.2417 324.223L61.8068 301.909L39.6446 305.32L12.4881 128.9L35.0236 125.431L28.1848 81.0036L50.7203 77.5347ZM270.924 43.6385L267.456 21.103L179.245 34.6813L182.714 57.2168L270.924 43.6385ZM270.924 43.6385L274.294 65.5302L296.186 62.1603L303.025 106.587L258.597 113.426L251.759 68.999L230.511 72.2698L227.141 50.3781L270.924 43.6385Z" fill="black"/>
<path d="M143.704 283.37L136.171 234.436L150.428 232.242L146.662 207.774L160.919 205.58L157.153 181.113L171.41 178.918L167.644 154.451L181.901 152.256L178.135 127.789L121.106 136.568L117.34 112.101L217.14 96.7383L224.672 145.673L210.415 147.867L214.182 172.334L199.924 174.529L203.691 198.996L189.433 201.191L193.2 225.658L178.943 227.852L182.709 252.32L239.737 243.541L243.504 268.008L143.704 283.37Z" fill="white"/>
<rect x="202.975" y="98.919" width="14.332" height="50.162" transform="rotate(-8.75089 202.975 98.919)" fill="black"/>
<rect x="196.441" y="150.677" width="14.332" height="25.4068" transform="rotate(-8.75089 196.441 150.677)" fill="black"/>
<rect x="186.141" y="177.969" width="14.332" height="25.4068" transform="rotate(-8.75089 186.141 177.969)" fill="black"/>
<rect x="175.841" y="205.26" width="14.332" height="46.9048" transform="rotate(-8.75089 175.841 205.26)" fill="black"/>
<rect x="225.473" y="245.078" width="14.332" height="25.4068" transform="rotate(-8.75089 225.473 245.078)" fill="black"/>
<path fill-rule="evenodd" clip-rule="evenodd" d="M179.44 34.396L112.438 44.7097L115.929 67.3873L182.931 57.0737L179.44 34.396ZM72.6349 74.0516L115.929 67.3873L119.419 90.065L76.1257 96.7292L72.6349 74.0516ZM76.6411 96.6499L53.9634 100.141L60.6276 143.434L83.3053 139.944L76.6411 96.6499ZM60.6276 143.434L37.95 146.925L58.4187 279.899L81.0963 276.408L60.6276 143.434ZM103.774 272.917L81.0963 276.408L87.9986 321.248L110.676 317.757L114.008 339.404L135.14 336.151L131.808 314.504L110.676 317.757L103.774 272.917Z" fill="white"/>
</svg>
