<svg width="2500" height="2500" viewBox="0 0 2500 2500" fill="none" xmlns="http://www.w3.org/2000/svg">
<g clip-path="url(#clip0_2278_2)">
<circle cx="1250" cy="1250" r="1250" fill="#00493D"/>
<path d="M910.196 1670.17V1474.8L1308.03 1066.17V1022.13H926.518V833.357H1573.78V1051.52L1197.16 1435.74V1481.22H1590.11V1670.07L910.196 1670.17Z" fill="#FFE400"/>
<path d="M660.466 598H555.688C394.346 776.786 305 1009.34 305 1250.5C305 1491.66 394.346 1724.21 555.688 1903H660.466C652.725 1883.75 525.638 1556.58 525.638 1250.5C525.638 944.424 652.618 617.254 660.466 598Z" fill="#FFE400"/>
<path d="M1839.84 1903H1944.62C2105.96 1724.21 2195.3 1491.66 2195.3 1250.5C2195.3 1009.34 2105.96 776.786 1944.62 598L1839.84 598C1847.58 617.254 1974.66 944.424 1974.66 1250.5C1974.66 1556.58 1847.58 1883.75 1839.84 1903Z" fill="#FFE400"/>
</g>
<defs>
<clipPath id="clip0_2278_2">
<rect width="2500" height="2500" fill="white"/>
</clipPath>
</defs>
</svg>
