<svg width="2569" height="980" viewBox="0 0 2569 980" fill="none" xmlns="http://www.w3.org/2000/svg">
<path d="M506.468 706.307V624.729L672.337 454.102V435.712H513.273V356.887H783.141V447.982L626.114 608.417V627.409H789.946V706.265L506.468 706.307Z" fill="#00493D"/>
<path d="M1110.81 647.835C1099.08 668.559 1082.1 685.822 1061.57 697.881C1041.04 709.941 1017.69 716.37 993.876 716.52C903.466 716.52 832.09 637.664 832.09 530.943C832.09 426.247 903.466 347.359 993.876 347.359C1017.6 347.517 1040.87 353.873 1061.38 365.797C1081.89 377.721 1098.92 394.799 1110.8 415.338V356.887H1205.29V706.297H1110.8L1110.81 647.835ZM1017 628.844C1036.38 628.503 1055.31 622.959 1071.82 612.793C1088.32 602.627 1101.79 588.212 1110.81 571.057V492.169C1101.72 475.071 1088.23 460.704 1071.75 450.548C1055.26 440.391 1036.36 434.811 1017 434.382C967.414 434.382 927.321 474.475 927.321 530.911C927.321 588.698 967.414 628.801 1017 628.801" fill="#00493D"/>
<path d="M1373.21 490.807V706.297H1276V356.886H1373.21V413.312C1384.96 393.563 1401.55 377.14 1421.42 365.6C1441.28 354.06 1463.77 347.785 1486.74 347.37V454.776C1446.05 454.537 1406.32 467.147 1373.21 490.807Z" fill="#00493D"/>
<path d="M1634.26 647.835V842.254H1539.77V356.919H1634.26V416.741C1645.96 395.943 1662.92 378.587 1683.44 366.416C1703.96 354.245 1727.33 347.688 1751.19 347.402C1841.6 347.402 1913.67 426.258 1913.67 532.304C1913.67 637.675 1841.61 716.521 1751.19 716.521C1727.44 716.057 1704.22 709.496 1683.74 697.468C1663.27 685.44 1646.23 668.348 1634.26 647.835ZM1634.26 493.519V569.654C1642.98 587.158 1656.34 601.931 1672.88 612.36C1689.43 622.789 1708.52 628.472 1728.07 628.791C1778.38 628.791 1818.48 588.698 1818.48 532.262C1818.48 475.161 1778.39 434.372 1728.07 434.372C1708.57 434.921 1689.58 440.699 1673.07 451.102C1656.57 461.506 1643.17 476.152 1634.26 493.509" fill="#00493D"/>
<path d="M450.856 220.201H399.02C319.201 308.374 275 423.065 275 542C275 660.935 319.201 775.626 399.02 863.799H450.856C447.026 854.303 384.154 692.95 384.154 542C384.154 391.05 446.973 229.697 450.856 220.201Z" fill="#00493D"/>
<path d="M1955.47 863.799H2007.31C2087.12 775.626 2131.33 660.935 2131.33 542C2131.33 423.065 2087.12 308.374 2007.31 220.201L1955.47 220.201C1959.3 229.697 2022.17 391.05 2022.17 542C2022.17 692.95 1959.3 854.303 1955.47 863.799Z" fill="#00493D"/>
<path d="M2160.53 423.328C2155.47 423.328 2150.84 422.926 2146.65 422.124C2142.45 421.383 2138.99 420.427 2136.28 419.254L2150.17 389.813C2154.55 391.232 2158.53 391.973 2162.11 392.035C2165.75 392.096 2169.08 391.171 2172.11 389.257C2175.13 387.344 2177.91 384.196 2180.44 379.814L2183.96 373.796L2157.29 227.793H2197.29L2209.33 332.411H2210.81L2257.93 227.793H2301.17L2219.79 385.369C2215.78 393.084 2211.02 399.781 2205.53 405.459C2200.1 411.138 2193.65 415.52 2186.18 418.606C2178.77 421.754 2170.23 423.328 2160.53 423.328Z" fill="#00493D"/>
</svg>
