<svg width="1800" height="624" viewBox="0 0 1800 624" fill="none" xmlns="http://www.w3.org/2000/svg">
<g clip-path="url(#clip0_2103_2)">
<path d="M224.42 471.304V392.21L385.238 226.778V208.948H231.018V132.523H492.668V220.845L340.423 376.395V394.808H499.266V471.263L224.42 471.304Z" fill="#00493D"/>
<path d="M810.359 414.612C798.99 434.705 782.521 451.442 762.615 463.135C742.709 474.827 720.071 481.061 696.985 481.206C609.329 481.206 540.126 404.751 540.126 301.28C540.126 199.772 609.329 123.286 696.985 123.286C719.986 123.439 742.548 129.602 762.433 141.163C782.318 152.724 798.836 169.282 810.349 189.195V132.523H901.964V471.294H810.349L810.359 414.612ZM719.408 396.199C738.198 395.869 756.554 390.494 772.554 380.638C788.555 370.781 801.612 356.805 810.359 340.172V263.686C801.544 247.109 788.471 233.18 772.485 223.332C756.5 213.485 738.179 208.075 719.408 207.659C671.33 207.659 632.458 246.531 632.458 301.249C632.458 357.276 671.33 396.158 719.408 396.158" fill="#00493D"/>
<path d="M1064.77 262.366V471.294H970.52V132.523H1064.77V187.23C1076.16 168.083 1092.24 152.16 1111.51 140.971C1130.77 129.782 1152.57 123.698 1174.84 123.296V227.432C1135.39 227.201 1096.87 239.426 1064.77 262.366Z" fill="#00493D"/>
<path d="M1317.87 414.613V603.112H1226.26V132.554H1317.87V190.556C1329.21 170.391 1345.65 153.563 1365.55 141.763C1385.45 129.963 1408.1 123.605 1431.24 123.327C1518.89 123.327 1588.77 199.783 1588.77 302.599C1588.77 404.762 1518.9 481.207 1431.24 481.207C1408.22 480.757 1385.7 474.396 1365.85 462.734C1345.99 451.072 1329.47 434.501 1317.87 414.613ZM1317.87 264.996V338.812C1326.33 355.783 1339.28 370.106 1355.32 380.217C1371.36 390.329 1389.87 395.839 1408.82 396.148C1457.6 396.148 1496.48 357.276 1496.48 302.559C1496.48 247.196 1457.61 207.649 1408.82 207.649C1389.92 208.181 1371.5 213.784 1355.5 223.87C1339.5 233.957 1326.51 248.157 1317.87 264.986" fill="#00493D"/>
<path d="M170.501 0H120.243C42.8553 85.4884 0 196.687 0 312C0 427.313 42.8553 538.512 120.243 624H170.501C166.788 614.793 105.83 458.354 105.83 312C105.83 165.646 166.737 9.20656 170.501 0Z" fill="#00493D"/>
<path d="M1629.3 624H1679.56C1756.94 538.512 1799.8 427.313 1799.8 312C1799.8 196.687 1756.94 85.4884 1679.56 0L1629.3 0C1633.01 9.20656 1693.97 165.646 1693.97 312C1693.97 458.354 1633.01 614.793 1629.3 624Z" fill="#00493D"/>
</g>
<defs>
<clipPath id="clip0_2103_2">
<rect width="1800" height="624" fill="white"/>
</clipPath>
</defs>
</svg>
