<svg width="102" height="49" viewBox="0 0 102 49" fill="none" xmlns="http://www.w3.org/2000/svg">
<path d="M84.7737 31.5375C88.9165 31.5375 92.275 28.1791 92.275 24.0362C92.275 19.8934 88.9165 16.5349 84.7737 16.5349C80.6308 16.5349 77.2723 19.8934 77.2723 24.0362C77.2723 28.1791 80.6308 31.5375 84.7737 31.5375Z" fill="#FFE400"/>
<path d="M66.8202 48.0726V42.7145C58.0403 34.7525 46.3561 29.9017 33.5692 29.9017C20.7823 29.9017 9.09809 34.7525 0.318115 42.7145V48.0726C1.29654 47.6791 17.9713 41.1821 33.5692 41.1821C49.1671 41.1821 65.8418 47.6791 66.8202 48.0726Z" fill="#FFE400"/>
<path d="M0.323364 0V5.35807C9.10334 13.3201 20.7876 18.1708 33.5744 18.1708C46.3613 18.1708 58.0455 13.3201 66.8255 5.35807V0C65.8471 0.393442 49.1724 6.89042 33.5744 6.89042C17.9765 6.89042 1.30179 0.393442 0.323364 0Z" fill="#FFE400"/>
</svg>
