<svg xmlns="http://www.w3.org/2000/svg" xmlns:xlink="http://www.w3.org/1999/xlink" width="38" height="40.923" viewBox="0 0 38 40.923">
  <defs>
    <clipPath id="clip-path">
      <rect id="Rectangle_1" data-name="Rectangle 1" width="38" height="40.923" fill="#fff"/>
    </clipPath>
  </defs>
  <g id="logo-old-mutual" clip-path="url(#clip-path)">
    <path id="Path_9" data-name="Path 9" d="M16.112,22.716l-3.1,1.649,1.5,4.11c.154.437.417.687-.44,1.178s-.942.142-1.248-.21l-2.4-2.841a2.481,2.481,0,0,1-1.216,1.745A2.506,2.506,0,0,1,5.8,27.442a2.474,2.474,0,0,1,.914-3.389,2.5,2.5,0,0,1,2.127-.173L7.563,20.395c-.154-.437-.417-.687.44-1.178s.942-.142,1.248.21l2.832,3.346,4.109-2.537Zm5.653-2.478,4.1,2.532L28.7,19.424c.3-.352.388-.7,1.248-.21s.594.741.44,1.178l-1.273,3.485a2.5,2.5,0,0,1,2.127.173,2.472,2.472,0,0,1,.914,3.389,2.5,2.5,0,0,1-4.625-.84l-2.4,2.844c-.3.352-.388.7-1.248.21s-.594-.741-.44-1.178l1.5-4.11-3.095-1.646Zm6.981,5.248a1.441,1.441,0,0,1,1.959-.522,1.421,1.421,0,0,1,.525,1.947,1.438,1.438,0,0,1-1.959.519A1.417,1.417,0,0,1,28.746,25.486ZM.822,9.462C2.033,7.382,12.977,1.235,17.205,0a2.647,2.647,0,0,1-.02,1.737c-1.556,4.1-8.674,4.141-6.89,9.587a8.982,8.982,0,0,0,3.1,3.746l2.907,1.794-.091,2.861L12,17.483a9.1,9.1,0,0,0-4.817-.8c-5.639,1.186-2.113,7.334-4.908,10.725-.44.378-.962.9-1.5.885C-.268,24.039-.263,11.33.822,9.462ZM9.208,25.486a1.421,1.421,0,0,1-.525,1.947,1.436,1.436,0,0,1-1.959-.522,1.421,1.421,0,0,1,.525-1.947A1.441,1.441,0,0,1,9.208,25.486ZM37.129,9.462c1.208,2.08,1.093,14.577.051,18.834-.542.011-1.065-.508-1.5-.885-2.8-3.392.731-9.539-4.908-10.725a9.1,9.1,0,0,0-4.817.8l-4.217,2.242-.1-2.855,2.912-1.8a9,9,0,0,0,3.1-3.746c1.785-5.446-5.333-5.486-6.89-9.587A2.664,2.664,0,0,1,20.746,0C24.974,1.235,36.044,7.595,37.129,9.462ZM18.976,8.875a1.428,1.428,0,1,1,1.433-1.428A1.431,1.431,0,0,1,18.976,8.875Zm0,32.048c-2.418,0-13.245-6.349-16.435-9.372.263-.474.976-.661,1.522-.851,4.354-.709,7.946,5.4,11.8,1.138a8.94,8.94,0,0,0,1.713-4.547l.477-14.58-4.331-.763c-.46-.085-.808.017-.808-.968s.348-.883.808-.968l3.675-.647a2.5,2.5,0,1,1,3.169,0l3.675.647c.46.085.808-.017.808.968s-.348.883-.808.968l-4.331.763.477,14.58A8.94,8.94,0,0,0,22.1,31.838c3.854,4.26,7.446-1.848,11.8-1.138.548.19,1.262.378,1.522.851C32.224,34.577,21.146,40.923,18.976,40.923Z" fill="#fff" fill-rule="evenodd"/>
  </g>
</svg>
